<svg version="1.1" xmlns="http://www.w3.org/2000/svg" xmlns:xlink="http://www.w3.org/1999/xlink" width="904.72802734375" height="614"><defs/><g><g transform="translate(-14,-6) scale(1,1)"><path fill="#2fff00" stroke="none" d="M 49.07707492897727 241.68 C 49.07707492897727 236.886167936 52.962917253922726 233 57.75634765625 233 C 62.549778058577274 233 66.43562038352273 236.886167936 66.43562038352273 241.68 C 66.43562038352273 246.47383206400002 62.549778058577274 250.36 57.75634765625 250.36 C 52.962917253922726 250.36 49.07707492897727 246.47383206400002 49.07707492897727 241.68 Z"/></g><g transform="translate(-14,-6) scale(1,1)"><path fill="none" stroke="#000000" d="M 49.07707492897727 241.68 C 49.07707492897727 236.886167936 52.962917253922726 233 57.75634765625 233 C 62.549778058577274 233 66.43562038352273 236.886167936 66.43562038352273 241.68 C 66.43562038352273 246.47383206400002 62.549778058577274 250.36 57.75634765625 250.36 C 52.962917253922726 250.36 49.07707492897727 246.47383206400002 49.07707492897727 241.68 Z" stroke-miterlimit="10"/></g><g transform="translate(-14,-6) scale(1,1)"><path fill="none" stroke="#000000" d="M 57.75634765625 250.36 L 57.75634765625 267.64" stroke-miterlimit="10"/></g><g transform="translate(-14,-6) scale(1,1)"><path fill="none" stroke="#000000" d="M 48.56652947443182 256.84 L 66.94616583806818 256.84" stroke-miterlimit="10"/></g><g transform="translate(-14,-6) scale(1,1)"><path fill="none" stroke="#000000" d="M 57.75634765625 267.64 L 44.992711292613635 285" stroke-miterlimit="10"/></g><g transform="translate(-14,-6) scale(1,1)"><path fill="none" stroke="#000000" d="M 57.75634765625 267.64 L 70.51998401988637 285" stroke-miterlimit="10"/></g><g transform="translate(-14,-6) scale(1,1)"><g><path fill="none" stroke="none"/><text fill="#000000" stroke="none" font-family="Arial" font-size="13px" font-style="normal" font-weight="bold" text-decoration="none" x="30.65185546875" y="305.5">vendedor</text></g></g><g transform="translate(-14,-6) scale(1,1)"><path fill="#C0C0C0" stroke="none" d="M 151 208 C 151 198.6111584 186.817216 191 231 191 C 275.18278399999997 191 311 198.6111584 311 208 C 311 217.3888416 275.18278399999997 225 231 225 C 186.817216 225 151 217.3888416 151 208 Z" opacity="0.2"/></g><g transform="translate(-14,-6) scale(1,1)"><path fill="#a3ffa3" stroke="none" d="M 144 201 C 144 191.6111584 179.817216 184 224 184 C 268.18278399999997 184 304 191.6111584 304 201 C 304 210.3888416 268.18278399999997 218 224 218 C 179.817216 218 144 210.3888416 144 201 Z"/></g><g transform="translate(-14,-6) scale(1,1)"><path fill="none" stroke="#000000" d="M 144 201 C 144 191.6111584 179.817216 184 224 184 C 268.18278399999997 184 304 191.6111584 304 201 C 304 210.3888416 268.18278399999997 218 224 218 C 179.817216 218 144 210.3888416 144 201 Z" stroke-miterlimit="10"/></g><g transform="translate(-14,-6) scale(1,1)"><g><path fill="none" stroke="none"/><text fill="#000000" stroke="none" font-family="Arial" font-size="13px" font-style="normal" font-weight="bold" text-decoration="none" x="175.58642578125" y="208">Registrar Pedido</text></g></g><g transform="translate(-14,-6) scale(1,1)"><path fill="#C0C0C0" stroke="none" d="M 151 272 C 151 262.6111584 186.1456432 255 229.5 255 C 272.8543568 255 308 262.6111584 308 272 C 308 281.3888416 272.8543568 289 229.5 289 C 186.1456432 289 151 281.3888416 151 272 Z" opacity="0.2"/></g><g transform="translate(-14,-6) scale(1,1)"><path fill="#a3ffa3" stroke="none" d="M 144 265 C 144 255.6111584 179.1456432 248 222.5 248 C 265.8543568 248 301 255.6111584 301 265 C 301 274.3888416 265.8543568 282 222.5 282 C 179.1456432 282 144 274.3888416 144 265 Z"/></g><g transform="translate(-14,-6) scale(1,1)"><path fill="none" stroke="#000000" d="M 144 265 C 144 255.6111584 179.1456432 248 222.5 248 C 265.8543568 248 301 255.6111584 301 265 C 301 274.3888416 265.8543568 282 222.5 282 C 179.1456432 282 144 274.3888416 144 265 Z" stroke-miterlimit="10"/></g><g transform="translate(-14,-6) scale(1,1)"><g><path fill="none" stroke="none"/><text fill="#000000" stroke="none" font-family="Arial" font-size="13px" font-style="normal" font-weight="bold" text-decoration="none" x="174.44189453125" y="272">Cancelar Pedido</text></g></g><g transform="translate(-14,-6) scale(1,1)"><path fill="#C0C0C0" stroke="none" d="M 151 328 C 151 318.6111584 185.697928 311 228.5 311 C 271.302072 311 306 318.6111584 306 328 C 306 337.3888416 271.302072 345 228.5 345 C 185.697928 345 151 337.3888416 151 328 Z" opacity="0.2"/></g><g transform="translate(-14,-6) scale(1,1)"><path fill="#a3ffa3" stroke="none" d="M 144 321 C 144 311.6111584 178.697928 304 221.5 304 C 264.302072 304 299 311.6111584 299 321 C 299 330.3888416 264.302072 338 221.5 338 C 178.697928 338 144 330.3888416 144 321 Z"/></g><g transform="translate(-14,-6) scale(1,1)"><path fill="none" stroke="#000000" d="M 144 321 C 144 311.6111584 178.697928 304 221.5 304 C 264.302072 304 299 311.6111584 299 321 C 299 330.3888416 264.302072 338 221.5 338 C 178.697928 338 144 330.3888416 144 321 Z" stroke-miterlimit="10"/></g><g transform="translate(-14,-6) scale(1,1)"><g><path fill="none" stroke="none"/><text fill="#000000" stroke="none" font-family="Arial" font-size="13px" font-style="normal" font-weight="bold" text-decoration="none" x="173.813232421875" y="328">Generar Factura</text></g></g><g transform="translate(-14,-6) scale(1,1)"><path fill="none" stroke="#000000" d="M 93 256 L 181 219" stroke-miterlimit="10"/></g><g transform="translate(-14,-6) scale(1,1)"><path fill="none" stroke="#000000" d="M 173.26327790290668 226.81940734278166 L 181 219 L 170.0001553840487 219.0584672979303" stroke-miterlimit="10"/></g><g transform="translate(-14,-6) scale(1,1)"><path fill="none" stroke="#000000" d="M 93 270 L 143 268" stroke-miterlimit="10"/></g><g transform="translate(-14,-6) scale(1,1)"><path fill="none" stroke="#000000" d="M 133.01369170618682 272.6123363560042 L 143 268 L 132.67719937198143 264.20002800086905" stroke-miterlimit="10"/></g><g transform="translate(-14,-6) scale(1,1)"><path fill="none" stroke="#000000" d="M 93 282 L 162 303" stroke-miterlimit="10"/></g><g transform="translate(-14,-6) scale(1,1)"><path fill="none" stroke="#000000" d="M 151.05198441691235 304.06815485416195 L 162 303 L 153.50328439992745 296.01388348139795" stroke-miterlimit="10"/></g><g transform="translate(-14,-6) scale(1,1)"><path fill="#ff0000" stroke="none" d="M 797.1456784446023 89.68 C 797.1456784446023 84.886167936 801.0315207695477 81 805.824951171875 81 C 810.6183815742023 81 814.5042238991477 84.886167936 814.5042238991477 89.68 C 814.5042238991477 94.473832064 810.6183815742023 98.36 805.824951171875 98.36 C 801.0315207695477 98.36 797.1456784446023 94.473832064 797.1456784446023 89.68 Z"/></g><g transform="translate(-14,-6) scale(1,1)"><path fill="none" stroke="#000000" d="M 797.1456784446023 89.68 C 797.1456784446023 84.886167936 801.0315207695477 81 805.824951171875 81 C 810.6183815742023 81 814.5042238991477 84.886167936 814.5042238991477 89.68 C 814.5042238991477 94.473832064 810.6183815742023 98.36 805.824951171875 98.36 C 801.0315207695477 98.36 797.1456784446023 94.473832064 797.1456784446023 89.68 Z" stroke-miterlimit="10"/></g><g transform="translate(-14,-6) scale(1,1)"><path fill="none" stroke="#000000" d="M 805.824951171875 98.36 L 805.824951171875 115.64" stroke-miterlimit="10"/></g><g transform="translate(-14,-6) scale(1,1)"><path fill="none" stroke="#000000" d="M 796.6351329900568 104.84 L 815.0147693536932 104.84" stroke-miterlimit="10"/></g><g transform="translate(-14,-6) scale(1,1)"><path fill="none" stroke="#000000" d="M 805.824951171875 115.64 L 793.0613148082386 133" stroke-miterlimit="10"/></g><g transform="translate(-14,-6) scale(1,1)"><path fill="none" stroke="#000000" d="M 805.824951171875 115.64 L 818.5885875355114 133" stroke-miterlimit="10"/></g><g transform="translate(-14,-6) scale(1,1)"><g><path fill="none" stroke="none"/><text fill="#000000" stroke="none" font-family="Arial" font-size="13px" font-style="normal" font-weight="bold" text-decoration="none" x="736.806884765625" y="153.5">Responsable de Cocina</text></g></g><g transform="translate(-14,-6) scale(1,1)"><path fill="#C0C0C0" stroke="none" d="M 519 184 C 519 174.6111584 556.3842192 167 602.5 167 C 648.6157808 167 686 174.6111584 686 184 C 686 193.3888416 648.6157808 201 602.5 201 C 556.3842192 201 519 193.3888416 519 184 Z" opacity="0.2"/></g><g transform="translate(-14,-6) scale(1,1)"><path fill="#ffa182" stroke="none" d="M 512 177 C 512 167.6111584 549.3842192 160 595.5 160 C 641.6157808 160 679 167.6111584 679 177 C 679 186.3888416 641.6157808 194 595.5 194 C 549.3842192 194 512 186.3888416 512 177 Z"/></g><g transform="translate(-14,-6) scale(1,1)"><path fill="none" stroke="#000000" d="M 512 177 C 512 167.6111584 549.3842192 160 595.5 160 C 641.6157808 160 679 167.6111584 679 177 C 679 186.3888416 641.6157808 194 595.5 194 C 549.3842192 194 512 186.3888416 512 177 Z" stroke-miterlimit="10"/></g><g transform="translate(-14,-6) scale(1,1)"><g><path fill="none" stroke="none"/><text fill="#000000" stroke="none" font-family="Arial" font-size="13px" font-style="normal" font-weight="bold" text-decoration="none" x="544.921875" y="184">Confirmar Pedido</text></g></g><g transform="translate(-14,-6) scale(1,1)"><path fill="none" stroke="#000000" d="M 727 141 L 660 159" stroke-miterlimit="10"/></g><g transform="translate(-14,-6) scale(1,1)"><path fill="none" stroke="#000000" d="M 668.7224651542266 152.29786588963609 L 660 159 L 670.9068387370769 160.42858978135698" stroke-miterlimit="10"/></g><g transform="translate(-14,-6) scale(1,1)"><path fill="#C0C0C0" stroke="none" d="M 479 112 C 479 102.6111584 526.4578112 95 585 95 C 643.5421888 95 691 102.6111584 691 112 C 691 121.3888416 643.5421888 129 585 129 C 526.4578112 129 479 121.3888416 479 112 Z" opacity="0.2"/></g><g transform="translate(-14,-6) scale(1,1)"><path fill="#ffa182" stroke="none" d="M 472 105 C 472 95.6111584 519.4578112 88 578 88 C 636.5421888 88 684 95.6111584 684 105 C 684 114.3888416 636.5421888 122 578 122 C 519.4578112 122 472 114.3888416 472 105 Z"/></g><g transform="translate(-14,-6) scale(1,1)"><path fill="none" stroke="#000000" d="M 472 105 C 472 95.6111584 519.4578112 88 578 88 C 636.5421888 88 684 95.6111584 684 105 C 684 114.3888416 636.5421888 122 578 122 C 519.4578112 122 472 114.3888416 472 105 Z" stroke-miterlimit="10"/></g><g transform="translate(-14,-6) scale(1,1)"><g><path fill="none" stroke="none"/><text fill="#000000" stroke="none" font-family="Arial" font-size="13px" font-style="normal" font-weight="bold" text-decoration="none" x="512.2509765625" y="112">Informar Cierre Pedido</text></g></g><g transform="translate(-14,-6) scale(1,1)"><path fill="none" stroke="#000000" d="M 727 114 L 685 112" stroke-miterlimit="10"/></g><g transform="translate(-14,-6) scale(1,1)"><path fill="none" stroke="#000000" d="M 695.3513984503659 108.27863598639388 L 685 112 L 694.9509457683021 116.68814230973317" stroke-miterlimit="10"/></g><g transform="translate(-14,-6) scale(1,1)"><path fill="#2b2bff" stroke="none" d="M 793.6847409446023 449.68 C 793.6847409446023 444.886167936 797.5705832695477 441 802.364013671875 441 C 807.1574440742023 441 811.0432863991477 444.886167936 811.0432863991477 449.68 C 811.0432863991477 454.473832064 807.1574440742023 458.36 802.364013671875 458.36 C 797.5705832695477 458.36 793.6847409446023 454.473832064 793.6847409446023 449.68 Z"/></g><g transform="translate(-14,-6) scale(1,1)"><path fill="none" stroke="#000000" d="M 793.6847409446023 449.68 C 793.6847409446023 444.886167936 797.5705832695477 441 802.364013671875 441 C 807.1574440742023 441 811.0432863991477 444.886167936 811.0432863991477 449.68 C 811.0432863991477 454.473832064 807.1574440742023 458.36 802.364013671875 458.36 C 797.5705832695477 458.36 793.6847409446023 454.473832064 793.6847409446023 449.68 Z" stroke-miterlimit="10"/></g><g transform="translate(-14,-6) scale(1,1)"><path fill="none" stroke="#000000" d="M 802.364013671875 458.36 L 802.364013671875 475.64" stroke-miterlimit="10"/></g><g transform="translate(-14,-6) scale(1,1)"><path fill="none" stroke="#000000" d="M 793.1741954900568 464.84 L 811.5538318536932 464.84" stroke-miterlimit="10"/></g><g transform="translate(-14,-6) scale(1,1)"><path fill="none" stroke="#000000" d="M 802.364013671875 475.64 L 789.6003773082386 493" stroke-miterlimit="10"/></g><g transform="translate(-14,-6) scale(1,1)"><path fill="none" stroke="#000000" d="M 802.364013671875 475.64 L 815.1276500355114 493" stroke-miterlimit="10"/></g><g transform="translate(-14,-6) scale(1,1)"><g><path fill="none" stroke="none"/><text fill="#000000" stroke="none" font-family="Arial" font-size="13px" font-style="normal" font-weight="bold" text-decoration="none" x="706.254150390625" y="513.5">Responsable Gestión de Pizzeria</text></g></g><g transform="translate(-14,-6) scale(1,1)"><path fill="#C0C0C0" stroke="none" d="M 735 376 C 735 366.6111584 767.6832096 359 808 359 C 848.3167904 359 881 366.6111584 881 376 C 881 385.3888416 848.3167904 393 808 393 C 767.6832096 393 735 385.3888416 735 376 Z" opacity="0.2"/></g><g transform="translate(-14,-6) scale(1,1)"><path fill="#adc8ff" stroke="none" d="M 728 369 C 728 359.6111584 760.6832096 352 801 352 C 841.3167904 352 874 359.6111584 874 369 C 874 378.3888416 841.3167904 386 801 386 C 760.6832096 386 728 378.3888416 728 369 Z"/></g><g transform="translate(-14,-6) scale(1,1)"><path fill="none" stroke="#000000" d="M 728 369 C 728 359.6111584 760.6832096 352 801 352 C 841.3167904 352 874 359.6111584 874 369 C 874 378.3888416 841.3167904 386 801 386 C 760.6832096 386 728 378.3888416 728 369 Z" stroke-miterlimit="10"/></g><g transform="translate(-14,-6) scale(1,1)"><g><path fill="none" stroke="none"/><text fill="#000000" stroke="none" font-family="Arial" font-size="13px" font-style="normal" font-weight="bold" text-decoration="none" x="756.56640625" y="376">Registrar Menu</text></g></g><g transform="translate(-14,-6) scale(1,1)"><path fill="#C0C0C0" stroke="none" d="M 479 440 C 479 430.6111584 517.5035072000001 423 565 423 C 612.4964927999999 423 651 430.6111584 651 440 C 651 449.3888416 612.4964927999999 457 565 457 C 517.5035072000001 457 479 449.3888416 479 440 Z" opacity="0.2"/></g><g transform="translate(-14,-6) scale(1,1)"><path fill="#adc8ff" stroke="none" d="M 472 433 C 472 423.6111584 510.5035072 416 558 416 C 605.4964927999999 416 644 423.6111584 644 433 C 644 442.3888416 605.4964927999999 450 558 450 C 510.5035072 450 472 442.3888416 472 433 Z"/></g><g transform="translate(-14,-6) scale(1,1)"><path fill="none" stroke="#000000" d="M 472 433 C 472 423.6111584 510.5035072 416 558 416 C 605.4964927999999 416 644 423.6111584 644 433 C 644 442.3888416 605.4964927999999 450 558 450 C 510.5035072 450 472 442.3888416 472 433 Z" stroke-miterlimit="10"/></g><g transform="translate(-14,-6) scale(1,1)"><g><path fill="none" stroke="none"/><text fill="#000000" stroke="none" font-family="Arial" font-size="13px" font-style="normal" font-weight="bold" text-decoration="none" x="505.98095703125" y="440">Actualizar Precios</text></g></g><g transform="translate(-14,-6) scale(1,1)"><path fill="none" stroke="#000000" d="M 802 439 L 801 387" stroke-miterlimit="10"/></g><g transform="translate(-14,-6) scale(1,1)"><path fill="none" stroke="#000000" d="M 805.4041395113403 397.07985888614775 L 801 387 L 796.9866603419617 397.2417334855589" stroke-miterlimit="10"/></g><g transform="translate(-14,-6) scale(1,1)"><path fill="none" stroke="#000000" d="M 695 459 L 645 449" stroke-miterlimit="10"/></g><g transform="translate(-14,-6) scale(1,1)"><path fill="none" stroke="#000000" d="M 655.7908769318217 446.86529275021616 L 645 449 L 654.1397682256109 455.12083628127033" stroke-miterlimit="10"/></g><g transform="translate(-14,-6) scale(1,1)"><path fill="#C0C0C0" stroke="none" d="M 471 511 C 471 496.6405952 510.8466528 485 560 485 C 609.1533472 485 649 496.6405952 649 511 C 649 525.3594048 609.1533472 537 560 537 C 510.8466528 537 471 525.3594048 471 511 Z" opacity="0.2"/></g><g transform="translate(-14,-6) scale(1,1)"><path fill="#adc8ff" stroke="none" d="M 464 504 C 464 489.6405952 503.8466528 478 553 478 C 602.1533472 478 642 489.6405952 642 504 C 642 518.3594048 602.1533472 530 553 530 C 503.8466528 530 464 518.3594048 464 504 Z"/></g><g transform="translate(-14,-6) scale(1,1)"><path fill="none" stroke="#000000" d="M 464 504 C 464 489.6405952 503.8466528 478 553 478 C 602.1533472 478 642 489.6405952 642 504 C 642 518.3594048 602.1533472 530 553 530 C 503.8466528 530 464 518.3594048 464 504 Z" stroke-miterlimit="10"/></g><g transform="translate(-14,-6) scale(1,1)"><g><path fill="none" stroke="none"/><text fill="#000000" stroke="none" font-family="Arial" font-size="13px" font-style="normal" font-weight="bold" text-decoration="none" x="526.6318359375" y="504.5">Registrar</text><text fill="#000000" stroke="none" font-family="Arial" font-size="13px" font-style="normal" font-weight="bold" text-decoration="none" x="502.774169921875" y="517.5">Personal Entrega</text></g></g><g transform="translate(-14,-6) scale(1,1)"><path fill="#C0C0C0" stroke="none" d="M 479 600 C 479 590.6111584 518.17508 583 566.5 583 C 614.82492 583 654 590.6111584 654 600 C 654 609.3888416 614.82492 617 566.5 617 C 518.17508 617 479 609.3888416 479 600 Z" opacity="0.2"/></g><g transform="translate(-14,-6) scale(1,1)"><path fill="#adc8ff" stroke="none" d="M 472 593 C 472 583.6111584 511.17508 576 559.5 576 C 607.82492 576 647 583.6111584 647 593 C 647 602.3888416 607.82492 610 559.5 610 C 511.17508 610 472 602.3888416 472 593 Z"/></g><g transform="translate(-14,-6) scale(1,1)"><path fill="none" stroke="#000000" d="M 472 593 C 472 583.6111584 511.17508 576 559.5 576 C 607.82492 576 647 583.6111584 647 593 C 647 602.3888416 607.82492 610 559.5 610 C 511.17508 610 472 602.3888416 472 593 Z" stroke-miterlimit="10"/></g><g transform="translate(-14,-6) scale(1,1)"><g><path fill="none" stroke="none"/><text fill="#000000" stroke="none" font-family="Arial" font-size="13px" font-style="normal" font-weight="bold" text-decoration="none" x="506.392333984375" y="600">Registrar Vehiculo</text></g></g><g transform="translate(-14,-6) scale(1,1)"><path fill="none" stroke="#000000" d="M 695 490 L 643 495" stroke-miterlimit="10"/></g><g transform="translate(-14,-6) scale(1,1)"><path fill="none" stroke="#000000" d="M 652.7131152378495 489.83711394893743 L 643 495 L 653.5189213883295 498.21749791392995" stroke-miterlimit="10"/></g><g transform="translate(-14,-6) scale(1,1)"><path fill="#C0C0C0" stroke="none" d="M 319 392 C 319 382.6111584 351.2354944 375 391 375 C 430.7645056 375 463 382.6111584 463 392 C 463 401.3888416 430.7645056 409 391 409 C 351.2354944 409 319 401.3888416 319 392 Z" opacity="0.2"/></g><g transform="translate(-14,-6) scale(1,1)"><path fill="#a3ffa3" stroke="none" d="M 312 385 C 312 375.6111584 344.2354944 368 384 368 C 423.7645056 368 456 375.6111584 456 385 C 456 394.3888416 423.7645056 402 384 402 C 344.2354944 402 312 394.3888416 312 385 Z"/></g><g transform="translate(-14,-6) scale(1,1)"><path fill="none" stroke="#000000" d="M 312 385 C 312 375.6111584 344.2354944 368 384 368 C 423.7645056 368 456 375.6111584 456 385 C 456 394.3888416 423.7645056 402 384 402 C 344.2354944 402 312 394.3888416 312 385 Z" stroke-miterlimit="10"/></g><g transform="translate(-14,-6) scale(1,1)"><g><path fill="none" stroke="none"/><text fill="#000000" stroke="none" font-family="Arial" font-size="13px" font-style="normal" font-weight="bold" text-decoration="none" x="341.391357421875" y="392">Imprimir Ticket</text></g></g><g transform="translate(-14,-6) scale(1,1)"><path fill="#C0C0C0" stroke="none" d="M 119 128 C 119 118.6111584 168.0248144 111 228.5 111 C 288.97518560000003 111 338 118.6111584 338 128 C 338 137.3888416 288.97518560000003 145 228.5 145 C 168.0248144 145 119 137.3888416 119 128 Z" opacity="0.2"/></g><g transform="translate(-14,-6) scale(1,1)"><path fill="#a3ffa3" stroke="none" d="M 112 121 C 112 111.6111584 161.0248144 104 221.5 104 C 281.97518560000003 104 331 111.6111584 331 121 C 331 130.3888416 281.97518560000003 138 221.5 138 C 161.0248144 138 112 130.3888416 112 121 Z"/></g><g transform="translate(-14,-6) scale(1,1)"><path fill="none" stroke="#000000" d="M 112 121 C 112 111.6111584 161.0248144 104 221.5 104 C 281.97518560000003 104 331 111.6111584 331 121 C 331 130.3888416 281.97518560000003 138 221.5 138 C 161.0248144 138 112 130.3888416 112 121 Z" stroke-miterlimit="10"/></g><g transform="translate(-14,-6) scale(1,1)"><g><path fill="none" stroke="none"/><text fill="#000000" stroke="none" font-family="Arial" font-size="13px" font-style="normal" font-weight="bold" text-decoration="none" x="153.935546875" y="128">Calcular costo de envio</text></g></g><g transform="translate(-14,-6) scale(1,1)"><path fill="#C0C0C0" stroke="none" d="M 103 432 C 103 422.6111584 147.77152 415 203 415 C 258.22848 415 303 422.6111584 303 432 C 303 441.3888416 258.22848 449 203 449 C 147.77152 449 103 441.3888416 103 432 Z" opacity="0.2"/></g><g transform="translate(-14,-6) scale(1,1)"><path fill="#a3ffa3" stroke="none" d="M 96 425 C 96 415.6111584 140.77152 408 196 408 C 251.22848 408 296 415.6111584 296 425 C 296 434.3888416 251.22848 442 196 442 C 140.77152 442 96 434.3888416 96 425 Z"/></g><g transform="translate(-14,-6) scale(1,1)"><path fill="none" stroke="#000000" d="M 96 425 C 96 415.6111584 140.77152 408 196 408 C 251.22848 408 296 415.6111584 296 425 C 296 434.3888416 251.22848 442 196 442 C 140.77152 442 96 434.3888416 96 425 Z" stroke-miterlimit="10"/></g><g transform="translate(-14,-6) scale(1,1)"><g><path fill="none" stroke="none"/><text fill="#000000" stroke="none" font-family="Arial" font-size="13px" font-style="normal" font-weight="bold" text-decoration="none" x="136.024169921875" y="432">Registrar de Entrega</text></g></g><g transform="translate(-14,-6) scale(1,1)"><path fill="#C0C0C0" stroke="none" d="M 679 296 C 679 286.6111584 711.9070672 279 752.5 279 C 793.0929328 279 826 286.6111584 826 296 C 826 305.3888416 793.0929328 313 752.5 313 C 711.9070672 313 679 305.3888416 679 296 Z" opacity="0.2"/></g><g transform="translate(-14,-6) scale(1,1)"><path fill="#adc8ff" stroke="none" d="M 672 289 C 672 279.6111584 704.9070672 272 745.5 272 C 786.0929328 272 819 279.6111584 819 289 C 819 298.3888416 786.0929328 306 745.5 306 C 704.9070672 306 672 298.3888416 672 289 Z"/></g><g transform="translate(-14,-6) scale(1,1)"><path fill="none" stroke="#000000" d="M 672 289 C 672 279.6111584 704.9070672 272 745.5 272 C 786.0929328 272 819 279.6111584 819 289 C 819 298.3888416 786.0929328 306 745.5 306 C 704.9070672 306 672 298.3888416 672 289 Z" stroke-miterlimit="10"/></g><g transform="translate(-14,-6) scale(1,1)"><g><path fill="none" stroke="none"/><text fill="#000000" stroke="none" font-family="Arial" font-size="13px" font-style="normal" font-weight="bold" text-decoration="none" x="701.06640625" y="296">Modificar Menu</text></g></g><g transform="translate(-14,-6) scale(1,1)"><path fill="#C0C0C0" stroke="none" d="M 519 328 C 519 318.6111584 549.8923488 311 588 311 C 626.1076512 311 657 318.6111584 657 328 C 657 337.3888416 626.1076512 345 588 345 C 549.8923488 345 519 337.3888416 519 328 Z" opacity="0.2"/></g><g transform="translate(-14,-6) scale(1,1)"><path fill="#adc8ff" stroke="none" d="M 512 321 C 512 311.6111584 542.8923488 304 581 304 C 619.1076512 304 650 311.6111584 650 321 C 650 330.3888416 619.1076512 338 581 338 C 542.8923488 338 512 330.3888416 512 321 Z"/></g><g transform="translate(-14,-6) scale(1,1)"><path fill="none" stroke="#000000" d="M 512 321 C 512 311.6111584 542.8923488 304 581 304 C 619.1076512 304 650 311.6111584 650 321 C 650 330.3888416 619.1076512 338 581 338 C 542.8923488 338 512 330.3888416 512 321 Z" stroke-miterlimit="10"/></g><g transform="translate(-14,-6) scale(1,1)"><g><path fill="none" stroke="none"/><text fill="#000000" stroke="none" font-family="Arial" font-size="13px" font-style="normal" font-weight="bold" text-decoration="none" x="539.457763671875" y="328">Eliminar Menu</text></g></g><g transform="translate(-14,-6) scale(1,1)"><path fill="none" stroke="#000000" d="M 715 520 L 597 575" stroke-miterlimit="10"/></g><g transform="translate(-14,-6) scale(1,1)"><path fill="none" stroke="#000000" d="M 604.4328643191078 566.8912067473801 L 597 575 L 607.9896114598479 574.5220460675134" stroke-miterlimit="10"/></g><g transform="translate(-14,-6) scale(1,1)"><path fill="none" stroke="#000000" d="M 555 531 L 558 575" stroke-miterlimit="10" stroke-dasharray="3"/></g><g transform="translate(-14,-6) scale(1,1)"><path fill="none" stroke="#000000" d="M 553.1089281230779 565.1472127854712 L 558 575 L 561.508462561539 564.5745172555761" stroke-miterlimit="10"/></g><g transform="translate(-14,-6) scale(1,1)"><g><path fill="none" stroke="none"/><text fill="#000000" stroke="none" font-family="Helvetica" font-size="16px" font-style="normal" font-weight="normal" text-decoration="none" x="464.5" y="557.5">«include»</text></g></g><g transform="translate(-14,-6) scale(1,1)"><path fill="none" stroke="#000000" d="M 267 339 L 338 367" stroke-miterlimit="10" stroke-dasharray="3"/></g><g transform="translate(-14,-6) scale(1,1)"><path fill="none" stroke="#000000" d="M 327.00160048447714 367.1876382075878 L 338 367 L 330.09027687137996 359.35563736936996" stroke-miterlimit="10"/></g><g transform="translate(-14,-6) scale(1,1)"><g><path fill="none" stroke="none"/><text fill="#000000" stroke="none" font-family="Helvetica" font-size="16px" font-style="normal" font-weight="normal" text-decoration="none" x="318.5" y="350.5">«include»</text></g></g><g transform="translate(-14,-6) scale(1,1)"><path fill="none" stroke="#000000" d="M 222 139 L 223 183" stroke-miterlimit="10" stroke-dasharray="3"/></g><g transform="translate(-14,-6) scale(1,1)"><path fill="none" stroke="#000000" d="M 218.56065873692773 172.9355949430687 L 223 183 L 226.97752075324465 172.74430262451605" stroke-miterlimit="10"/></g><g transform="translate(-14,-6) scale(1,1)"><g><path fill="none" stroke="none"/><text fill="#000000" stroke="none" font-family="Helvetica" font-size="16px" font-style="normal" font-weight="normal" text-decoration="none" x="127.5" y="165.5">«extend»</text></g></g><g transform="translate(-14,-6) scale(1,1)"><path fill="none" stroke="#000000" d="M 93 310 L 180 407" stroke-miterlimit="10"/></g><g transform="translate(-14,-6) scale(1,1)"><path fill="none" stroke="#000000" d="M 170.0807416681858 402.2451799038518 L 180 407 L 176.34819070254147 396.6238596359246" stroke-miterlimit="10"/></g><g transform="translate(-14,-6) scale(1,1)"><g><path fill="none" stroke="none"/><text fill="#000000" stroke="none" font-family="Helvetica" font-size="20px" font-style="normal" font-weight="normal" text-decoration="none" x="308" y="41">DIAGRAMA CASOS DE USO</text></g></g><g transform="translate(-14,-6) scale(1,1)"><path fill="none" stroke="#000000" d="M 758 307 L 788 351" stroke-miterlimit="10" stroke-dasharray="3"/></g><g transform="translate(-14,-6) scale(1,1)"><path fill="none" stroke="#000000" d="M 778.7969723457876 344.97469652251425 L 788 351 L 785.7530096858961 340.23194379062204" stroke-miterlimit="10"/></g><g transform="translate(-14,-6) scale(1,1)"><g><path fill="none" stroke="none"/><text fill="#000000" stroke="none" font-family="Helvetica" font-size="16px" font-style="normal" font-weight="normal" text-decoration="none" x="775.5" y="326.5">«extend»</text></g></g><g transform="translate(-14,-6) scale(1,1)"><path fill="none" stroke="#000000" d="M 651 336 L 727 353" stroke-miterlimit="10" stroke-dasharray="3"/></g><g transform="translate(-14,-6) scale(1,1)"><path fill="none" stroke="#000000" d="M 716.163513441371 354.88959230117337 L 727 353 L 718.001303340319 346.67359039999417" stroke-miterlimit="10"/></g><g transform="translate(-14,-6) scale(1,1)"><g><path fill="none" stroke="none"/><text fill="#000000" stroke="none" font-family="Helvetica" font-size="16px" font-style="normal" font-weight="normal" text-decoration="none" x="598.5" y="357.5">«extend»</text></g></g><g transform="translate(-14,-6) scale(1,1)"><g><path fill="none" stroke="none"/><text fill="#000000" stroke="none" font-family="Helvetica" font-size="28px" font-style="normal" font-weight="normal" text-decoration="none" x="37" y="65">DELIVERY</text></g></g><g transform="translate(-14,-6) scale(1,1)"><path fill="#C0C0C0" stroke="none" d="M 343 245.5 C 343 228.6553136 384.1897984 215 435 215 C 485.8102016 215 527 228.6553136 527 245.5 C 527 262.3446864 485.8102016 276 435 276 C 384.1897984 276 343 262.3446864 343 245.5 Z" opacity="0.2"/></g><g transform="translate(-14,-6) scale(1,1)"><path fill="#a3ffa3" stroke="none" d="M 336 238.5 C 336 221.6553136 377.1897984 208 428 208 C 478.8102016 208 520 221.6553136 520 238.5 C 520 255.3446864 478.8102016 269 428 269 C 377.1897984 269 336 255.3446864 336 238.5 Z"/></g><g transform="translate(-14,-6) scale(1,1)"><path fill="none" stroke="#000000" d="M 336 238.5 C 336 221.6553136 377.1897984 208 428 208 C 478.8102016 208 520 221.6553136 520 238.5 C 520 255.3446864 478.8102016 269 428 269 C 377.1897984 269 336 255.3446864 336 238.5 Z" stroke-miterlimit="10"/></g><g transform="translate(-14,-6) scale(1,1)"><g><path fill="none" stroke="none"/><text fill="#000000" stroke="none" font-family="Arial" font-size="13px" font-style="normal" font-weight="bold" text-decoration="none" x="378.5009765625" y="239">Asignar Personal</text><text fill="#000000" stroke="none" font-family="Arial" font-size="13px" font-style="normal" font-weight="bold" text-decoration="none" x="396.1982421875" y="252">de Entrega</text></g></g><g transform="translate(-14,-6) scale(1,1)"><path fill="none" stroke="#000000" d="M 348 270 L 266 303" stroke-miterlimit="10" stroke-dasharray="3"/></g><g transform="translate(-14,-6) scale(1,1)"><path fill="none" stroke="#000000" d="M 273.8562734829942 295.3007164644753 L 266 303 L 276.99943985292873 303.1110086564338" stroke-miterlimit="10"/></g><g transform="translate(-14,-6) scale(1,1)"><g><path fill="none" stroke="none"/><text fill="#000000" stroke="none" font-family="Helvetica" font-size="16px" font-style="normal" font-weight="normal" text-decoration="none" x="316.5" y="301.5">«extend»</text></g></g></g></svg>