<svg version="1.1" xmlns="http://www.w3.org/2000/svg" xmlns:xlink="http://www.w3.org/1999/xlink" width="879.64990234375" height="622"><defs/><g><g transform="translate(-14,-6) scale(1,1)"><path fill="#2fff00" stroke="none" d="M 49.07707492897727 241.68 C 49.07707492897727 236.886167936 52.962917253922726 233 57.75634765625 233 C 62.549778058577274 233 66.43562038352273 236.886167936 66.43562038352273 241.68 C 66.43562038352273 246.47383206400002 62.549778058577274 250.36 57.75634765625 250.36 C 52.962917253922726 250.36 49.07707492897727 246.47383206400002 49.07707492897727 241.68 Z"/></g><g transform="translate(-14,-6) scale(1,1)"><path fill="none" stroke="#000000" d="M 49.07707492897727 241.68 C 49.07707492897727 236.886167936 52.962917253922726 233 57.75634765625 233 C 62.549778058577274 233 66.43562038352273 236.886167936 66.43562038352273 241.68 C 66.43562038352273 246.47383206400002 62.549778058577274 250.36 57.75634765625 250.36 C 52.962917253922726 250.36 49.07707492897727 246.47383206400002 49.07707492897727 241.68 Z" stroke-miterlimit="10"/></g><g transform="translate(-14,-6) scale(1,1)"><path fill="none" stroke="#000000" d="M 57.75634765625 250.36 L 57.75634765625 267.64" stroke-miterlimit="10"/></g><g transform="translate(-14,-6) scale(1,1)"><path fill="none" stroke="#000000" d="M 48.56652947443182 256.84 L 66.94616583806818 256.84" stroke-miterlimit="10"/></g><g transform="translate(-14,-6) scale(1,1)"><path fill="none" stroke="#000000" d="M 57.75634765625 267.64 L 44.992711292613635 285" stroke-miterlimit="10"/></g><g transform="translate(-14,-6) scale(1,1)"><path fill="none" stroke="#000000" d="M 57.75634765625 267.64 L 70.51998401988637 285" stroke-miterlimit="10"/></g><g transform="translate(-14,-6) scale(1,1)"><g><path fill="none" stroke="none"/><text fill="#000000" stroke="none" font-family="Arial" font-size="13px" font-style="normal" font-weight="bold" text-decoration="none" x="30.65185546875" y="305.5">vendedor</text></g></g><g transform="translate(-14,-6) scale(1,1)"><path fill="#C0C0C0" stroke="none" d="M 175 208 C 175 198.6111584 210.817216 191 255 191 C 299.18278399999997 191 335 198.6111584 335 208 C 335 217.3888416 299.18278399999997 225 255 225 C 210.817216 225 175 217.3888416 175 208 Z" opacity="0.2"/></g><g transform="translate(-14,-6) scale(1,1)"><path fill="#a3ffa3" stroke="none" d="M 168 201 C 168 191.6111584 203.817216 184 248 184 C 292.18278399999997 184 328 191.6111584 328 201 C 328 210.3888416 292.18278399999997 218 248 218 C 203.817216 218 168 210.3888416 168 201 Z"/></g><g transform="translate(-14,-6) scale(1,1)"><path fill="none" stroke="#000000" d="M 168 201 C 168 191.6111584 203.817216 184 248 184 C 292.18278399999997 184 328 191.6111584 328 201 C 328 210.3888416 292.18278399999997 218 248 218 C 203.817216 218 168 210.3888416 168 201 Z" stroke-miterlimit="10"/></g><g transform="translate(-14,-6) scale(1,1)"><g><path fill="none" stroke="none"/><text fill="#000000" stroke="none" font-family="Arial" font-size="13px" font-style="normal" font-weight="bold" text-decoration="none" x="199.58642578125" y="208">Registrar Pedido</text></g></g><g transform="translate(-14,-6) scale(1,1)"><path fill="#C0C0C0" stroke="none" d="M 175 272 C 175 262.6111584 210.1456432 255 253.5 255 C 296.8543568 255 332 262.6111584 332 272 C 332 281.3888416 296.8543568 289 253.5 289 C 210.1456432 289 175 281.3888416 175 272 Z" opacity="0.2"/></g><g transform="translate(-14,-6) scale(1,1)"><path fill="#a3ffa3" stroke="none" d="M 168 265 C 168 255.6111584 203.1456432 248 246.5 248 C 289.8543568 248 325 255.6111584 325 265 C 325 274.3888416 289.8543568 282 246.5 282 C 203.1456432 282 168 274.3888416 168 265 Z"/></g><g transform="translate(-14,-6) scale(1,1)"><path fill="none" stroke="#000000" d="M 168 265 C 168 255.6111584 203.1456432 248 246.5 248 C 289.8543568 248 325 255.6111584 325 265 C 325 274.3888416 289.8543568 282 246.5 282 C 203.1456432 282 168 274.3888416 168 265 Z" stroke-miterlimit="10"/></g><g transform="translate(-14,-6) scale(1,1)"><g><path fill="none" stroke="none"/><text fill="#000000" stroke="none" font-family="Arial" font-size="13px" font-style="normal" font-weight="bold" text-decoration="none" x="198.44189453125" y="272">Cancelar Pedido</text></g></g><g transform="translate(-14,-6) scale(1,1)"><path fill="#C0C0C0" stroke="none" d="M 175 328 C 175 318.6111584 209.697928 311 252.5 311 C 295.302072 311 330 318.6111584 330 328 C 330 337.3888416 295.302072 345 252.5 345 C 209.697928 345 175 337.3888416 175 328 Z" opacity="0.2"/></g><g transform="translate(-14,-6) scale(1,1)"><path fill="#a3ffa3" stroke="none" d="M 168 321 C 168 311.6111584 202.697928 304 245.5 304 C 288.302072 304 323 311.6111584 323 321 C 323 330.3888416 288.302072 338 245.5 338 C 202.697928 338 168 330.3888416 168 321 Z"/></g><g transform="translate(-14,-6) scale(1,1)"><path fill="none" stroke="#000000" d="M 168 321 C 168 311.6111584 202.697928 304 245.5 304 C 288.302072 304 323 311.6111584 323 321 C 323 330.3888416 288.302072 338 245.5 338 C 202.697928 338 168 330.3888416 168 321 Z" stroke-miterlimit="10"/></g><g transform="translate(-14,-6) scale(1,1)"><g><path fill="none" stroke="none"/><text fill="#000000" stroke="none" font-family="Arial" font-size="13px" font-style="normal" font-weight="bold" text-decoration="none" x="197.813232421875" y="328">Generar Factura</text></g></g><g transform="translate(-14,-6) scale(1,1)"><path fill="none" stroke="#000000" d="M 93 258 L 199 219" stroke-miterlimit="10"/></g><g transform="translate(-14,-6) scale(1,1)"><path fill="none" stroke="#000000" d="M 190.9159142760274 226.45972908405273 L 199 219 L 188.00886314373741 218.55851318603382" stroke-miterlimit="10"/></g><g transform="translate(-14,-6) scale(1,1)"><path fill="none" stroke="#000000" d="M 93 270 L 167 268" stroke-miterlimit="10"/></g><g transform="translate(-14,-6) scale(1,1)"><path fill="none" stroke="#000000" d="M 156.95476404528247 272.4825477815691 L 167 268 L 156.72730560446007 264.06658547114057" stroke-miterlimit="10"/></g><g transform="translate(-14,-6) scale(1,1)"><path fill="none" stroke="#000000" d="M 93 280 L 177 303" stroke-miterlimit="10"/></g><g transform="translate(-14,-6) scale(1,1)"><path fill="none" stroke="#000000" d="M 166.0864301200108 304.37622399143163 L 177 303 L 168.30980341413346 296.2560780476793" stroke-miterlimit="10"/></g><g transform="translate(-14,-6) scale(1,1)"><path fill="#ff0000" stroke="none" d="M 797.1456784446023 97.68 C 797.1456784446023 92.886167936 801.0315207695477 89 805.824951171875 89 C 810.6183815742023 89 814.5042238991477 92.886167936 814.5042238991477 97.68 C 814.5042238991477 102.473832064 810.6183815742023 106.36 805.824951171875 106.36 C 801.0315207695477 106.36 797.1456784446023 102.473832064 797.1456784446023 97.68 Z"/></g><g transform="translate(-14,-6) scale(1,1)"><path fill="none" stroke="#000000" d="M 797.1456784446023 97.68 C 797.1456784446023 92.886167936 801.0315207695477 89 805.824951171875 89 C 810.6183815742023 89 814.5042238991477 92.886167936 814.5042238991477 97.68 C 814.5042238991477 102.473832064 810.6183815742023 106.36 805.824951171875 106.36 C 801.0315207695477 106.36 797.1456784446023 102.473832064 797.1456784446023 97.68 Z" stroke-miterlimit="10"/></g><g transform="translate(-14,-6) scale(1,1)"><path fill="none" stroke="#000000" d="M 805.824951171875 106.36 L 805.824951171875 123.64" stroke-miterlimit="10"/></g><g transform="translate(-14,-6) scale(1,1)"><path fill="none" stroke="#000000" d="M 796.6351329900568 112.84 L 815.0147693536932 112.84" stroke-miterlimit="10"/></g><g transform="translate(-14,-6) scale(1,1)"><path fill="none" stroke="#000000" d="M 805.824951171875 123.64 L 793.0613148082386 141" stroke-miterlimit="10"/></g><g transform="translate(-14,-6) scale(1,1)"><path fill="none" stroke="#000000" d="M 805.824951171875 123.64 L 818.5885875355114 141" stroke-miterlimit="10"/></g><g transform="translate(-14,-6) scale(1,1)"><g><path fill="none" stroke="none"/><text fill="#000000" stroke="none" font-family="Arial" font-size="13px" font-style="normal" font-weight="bold" text-decoration="none" x="736.806884765625" y="161.5">Responsable de Cocina</text></g></g><g transform="translate(-14,-6) scale(1,1)"><path fill="#C0C0C0" stroke="none" d="M 519 192 C 519 182.6111584 556.3842192 175 602.5 175 C 648.6157808 175 686 182.6111584 686 192 C 686 201.3888416 648.6157808 209 602.5 209 C 556.3842192 209 519 201.3888416 519 192 Z" opacity="0.2"/></g><g transform="translate(-14,-6) scale(1,1)"><path fill="#ffa182" stroke="none" d="M 512 185 C 512 175.6111584 549.3842192 168 595.5 168 C 641.6157808 168 679 175.6111584 679 185 C 679 194.3888416 641.6157808 202 595.5 202 C 549.3842192 202 512 194.3888416 512 185 Z"/></g><g transform="translate(-14,-6) scale(1,1)"><path fill="none" stroke="#000000" d="M 512 185 C 512 175.6111584 549.3842192 168 595.5 168 C 641.6157808 168 679 175.6111584 679 185 C 679 194.3888416 641.6157808 202 595.5 202 C 549.3842192 202 512 194.3888416 512 185 Z" stroke-miterlimit="10"/></g><g transform="translate(-14,-6) scale(1,1)"><g><path fill="none" stroke="none"/><text fill="#000000" stroke="none" font-family="Arial" font-size="13px" font-style="normal" font-weight="bold" text-decoration="none" x="544.921875" y="192">Confirmar Pedido</text></g></g><g transform="translate(-14,-6) scale(1,1)"><path fill="none" stroke="#000000" d="M 727 149 L 660 167" stroke-miterlimit="10"/></g><g transform="translate(-14,-6) scale(1,1)"><path fill="none" stroke="#000000" d="M 668.7224651542266 160.29786588963609 L 660 167 L 670.9068387370769 168.42858978135698" stroke-miterlimit="10"/></g><g transform="translate(-14,-6) scale(1,1)"><path fill="#C0C0C0" stroke="none" d="M 479 120 C 479 110.6111584 526.4578112 103 585 103 C 643.5421888 103 691 110.6111584 691 120 C 691 129.3888416 643.5421888 137 585 137 C 526.4578112 137 479 129.3888416 479 120 Z" opacity="0.2"/></g><g transform="translate(-14,-6) scale(1,1)"><path fill="#ffa182" stroke="none" d="M 472 113 C 472 103.6111584 519.4578112 96 578 96 C 636.5421888 96 684 103.6111584 684 113 C 684 122.3888416 636.5421888 130 578 130 C 519.4578112 130 472 122.3888416 472 113 Z"/></g><g transform="translate(-14,-6) scale(1,1)"><path fill="none" stroke="#000000" d="M 472 113 C 472 103.6111584 519.4578112 96 578 96 C 636.5421888 96 684 103.6111584 684 113 C 684 122.3888416 636.5421888 130 578 130 C 519.4578112 130 472 122.3888416 472 113 Z" stroke-miterlimit="10"/></g><g transform="translate(-14,-6) scale(1,1)"><g><path fill="none" stroke="none"/><text fill="#000000" stroke="none" font-family="Arial" font-size="13px" font-style="normal" font-weight="bold" text-decoration="none" x="512.2509765625" y="120">Informar Cierre Pedido</text></g></g><g transform="translate(-14,-6) scale(1,1)"><path fill="none" stroke="#000000" d="M 727 122 L 685 120" stroke-miterlimit="10"/></g><g transform="translate(-14,-6) scale(1,1)"><path fill="none" stroke="#000000" d="M 695.3513984503659 116.27863598639388 L 685 120 L 694.9509457683021 124.68814230973317" stroke-miterlimit="10"/></g><g transform="translate(-14,-6) scale(1,1)"><path fill="#2b2bff" stroke="none" d="M 729.6847409446023 457.68 C 729.6847409446023 452.886167936 733.5705832695477 449 738.364013671875 449 C 743.1574440742023 449 747.0432863991477 452.886167936 747.0432863991477 457.68 C 747.0432863991477 462.473832064 743.1574440742023 466.36 738.364013671875 466.36 C 733.5705832695477 466.36 729.6847409446023 462.473832064 729.6847409446023 457.68 Z"/></g><g transform="translate(-14,-6) scale(1,1)"><path fill="none" stroke="#000000" d="M 729.6847409446023 457.68 C 729.6847409446023 452.886167936 733.5705832695477 449 738.364013671875 449 C 743.1574440742023 449 747.0432863991477 452.886167936 747.0432863991477 457.68 C 747.0432863991477 462.473832064 743.1574440742023 466.36 738.364013671875 466.36 C 733.5705832695477 466.36 729.6847409446023 462.473832064 729.6847409446023 457.68 Z" stroke-miterlimit="10"/></g><g transform="translate(-14,-6) scale(1,1)"><path fill="none" stroke="#000000" d="M 738.364013671875 466.36 L 738.364013671875 483.64" stroke-miterlimit="10"/></g><g transform="translate(-14,-6) scale(1,1)"><path fill="none" stroke="#000000" d="M 729.1741954900568 472.84 L 747.5538318536932 472.84" stroke-miterlimit="10"/></g><g transform="translate(-14,-6) scale(1,1)"><path fill="none" stroke="#000000" d="M 738.364013671875 483.64 L 725.6003773082386 501" stroke-miterlimit="10"/></g><g transform="translate(-14,-6) scale(1,1)"><path fill="none" stroke="#000000" d="M 738.364013671875 483.64 L 751.1276500355114 501" stroke-miterlimit="10"/></g><g transform="translate(-14,-6) scale(1,1)"><g><path fill="none" stroke="none"/><text fill="#000000" stroke="none" font-family="Arial" font-size="13px" font-style="normal" font-weight="bold" text-decoration="none" x="642.254150390625" y="521.5">Responsable Gestión de Pizzeria</text></g></g><g transform="translate(-14,-6) scale(1,1)"><path fill="#C0C0C0" stroke="none" d="M 671 384 C 671 374.6111584 703.6832096 367 744 367 C 784.3167904 367 817 374.6111584 817 384 C 817 393.3888416 784.3167904 401 744 401 C 703.6832096 401 671 393.3888416 671 384 Z" opacity="0.2"/></g><g transform="translate(-14,-6) scale(1,1)"><path fill="#adc8ff" stroke="none" d="M 664 377 C 664 367.6111584 696.6832096 360 737 360 C 777.3167904 360 810 367.6111584 810 377 C 810 386.3888416 777.3167904 394 737 394 C 696.6832096 394 664 386.3888416 664 377 Z"/></g><g transform="translate(-14,-6) scale(1,1)"><path fill="none" stroke="#000000" d="M 664 377 C 664 367.6111584 696.6832096 360 737 360 C 777.3167904 360 810 367.6111584 810 377 C 810 386.3888416 777.3167904 394 737 394 C 696.6832096 394 664 386.3888416 664 377 Z" stroke-miterlimit="10"/></g><g transform="translate(-14,-6) scale(1,1)"><g><path fill="none" stroke="none"/><text fill="#000000" stroke="none" font-family="Arial" font-size="13px" font-style="normal" font-weight="bold" text-decoration="none" x="692.56640625" y="384">Registrar Menu</text></g></g><g transform="translate(-14,-6) scale(1,1)"><path fill="#C0C0C0" stroke="none" d="M 399 472 C 399 462.6111584 437.5035072 455 485 455 C 532.4964927999999 455 571 462.6111584 571 472 C 571 481.3888416 532.4964927999999 489 485 489 C 437.5035072 489 399 481.3888416 399 472 Z" opacity="0.2"/></g><g transform="translate(-14,-6) scale(1,1)"><path fill="#adc8ff" stroke="none" d="M 392 465 C 392 455.6111584 430.5035072 448 478 448 C 525.4964927999999 448 564 455.6111584 564 465 C 564 474.3888416 525.4964927999999 482 478 482 C 430.5035072 482 392 474.3888416 392 465 Z"/></g><g transform="translate(-14,-6) scale(1,1)"><path fill="none" stroke="#000000" d="M 392 465 C 392 455.6111584 430.5035072 448 478 448 C 525.4964927999999 448 564 455.6111584 564 465 C 564 474.3888416 525.4964927999999 482 478 482 C 430.5035072 482 392 474.3888416 392 465 Z" stroke-miterlimit="10"/></g><g transform="translate(-14,-6) scale(1,1)"><g><path fill="none" stroke="none"/><text fill="#000000" stroke="none" font-family="Arial" font-size="13px" font-style="normal" font-weight="bold" text-decoration="none" x="425.98095703125" y="472">Actualizar Precios</text></g></g><g transform="translate(-14,-6) scale(1,1)"><path fill="none" stroke="#000000" d="M 738 447 L 737 395" stroke-miterlimit="10"/></g><g transform="translate(-14,-6) scale(1,1)"><path fill="none" stroke="#000000" d="M 741.4041395113403 405.07985888614775 L 737 395 L 732.9866603419617 405.2417334855589" stroke-miterlimit="10"/></g><g transform="translate(-14,-6) scale(1,1)"><path fill="none" stroke="#000000" d="M 631 478 L 565 472" stroke-miterlimit="10"/></g><g transform="translate(-14,-6) scale(1,1)"><path fill="none" stroke="#000000" d="M 575.5020506807682 468.72785521430103 L 565 472 L 574.739827019728 477.11231548574403" stroke-miterlimit="10"/></g><g transform="translate(-14,-6) scale(1,1)"><path fill="#C0C0C0" stroke="none" d="M 335 528 C 335 518.6111584 390.9644 511 460 511 C 529.0356 511 585 518.6111584 585 528 C 585 537.3888416 529.0356 545 460 545 C 390.9644 545 335 537.3888416 335 528 Z" opacity="0.2"/></g><g transform="translate(-14,-6) scale(1,1)"><path fill="#adc8ff" stroke="none" d="M 328 521 C 328 511.6111584 383.9644 504 453 504 C 522.0356 504 578 511.6111584 578 521 C 578 530.3888416 522.0356 538 453 538 C 383.9644 538 328 530.3888416 328 521 Z"/></g><g transform="translate(-14,-6) scale(1,1)"><path fill="none" stroke="#000000" d="M 328 521 C 328 511.6111584 383.9644 504 453 504 C 522.0356 504 578 511.6111584 578 521 C 578 530.3888416 522.0356 538 453 538 C 383.9644 538 328 530.3888416 328 521 Z" stroke-miterlimit="10"/></g><g transform="translate(-14,-6) scale(1,1)"><g><path fill="none" stroke="none"/><text fill="#000000" stroke="none" font-family="Arial" font-size="13px" font-style="normal" font-weight="bold" text-decoration="none" x="374.60009765625" y="528">Registrar Personal Entrega</text></g></g><g transform="translate(-14,-6) scale(1,1)"><path fill="#C0C0C0" stroke="none" d="M 455 608 C 455 598.6111584 494.17508 591 542.5 591 C 590.82492 591 630 598.6111584 630 608 C 630 617.3888416 590.82492 625 542.5 625 C 494.17508 625 455 617.3888416 455 608 Z" opacity="0.2"/></g><g transform="translate(-14,-6) scale(1,1)"><path fill="#adc8ff" stroke="none" d="M 448 601 C 448 591.6111584 487.17508 584 535.5 584 C 583.82492 584 623 591.6111584 623 601 C 623 610.3888416 583.82492 618 535.5 618 C 487.17508 618 448 610.3888416 448 601 Z"/></g><g transform="translate(-14,-6) scale(1,1)"><path fill="none" stroke="#000000" d="M 448 601 C 448 591.6111584 487.17508 584 535.5 584 C 583.82492 584 623 591.6111584 623 601 C 623 610.3888416 583.82492 618 535.5 618 C 487.17508 618 448 610.3888416 448 601 Z" stroke-miterlimit="10"/></g><g transform="translate(-14,-6) scale(1,1)"><g><path fill="none" stroke="none"/><text fill="#000000" stroke="none" font-family="Arial" font-size="13px" font-style="normal" font-weight="bold" text-decoration="none" x="482.392333984375" y="608">Registrar Vehiculo</text></g></g><g transform="translate(-14,-6) scale(1,1)"><path fill="none" stroke="#000000" d="M 631 500 L 579 506" stroke-miterlimit="10"/></g><g transform="translate(-14,-6) scale(1,1)"><path fill="none" stroke="#000000" d="M 588.6131797980859 500.65333990516746 L 579 506 L 589.5782042337476 509.0168850142364" stroke-miterlimit="10"/></g><g transform="translate(-14,-6) scale(1,1)"><path fill="#C0C0C0" stroke="none" d="M 319 392 C 319 382.6111584 351.2354944 375 391 375 C 430.7645056 375 463 382.6111584 463 392 C 463 401.3888416 430.7645056 409 391 409 C 351.2354944 409 319 401.3888416 319 392 Z" opacity="0.2"/></g><g transform="translate(-14,-6) scale(1,1)"><path fill="#a3ffa3" stroke="none" d="M 312 385 C 312 375.6111584 344.2354944 368 384 368 C 423.7645056 368 456 375.6111584 456 385 C 456 394.3888416 423.7645056 402 384 402 C 344.2354944 402 312 394.3888416 312 385 Z"/></g><g transform="translate(-14,-6) scale(1,1)"><path fill="none" stroke="#000000" d="M 312 385 C 312 375.6111584 344.2354944 368 384 368 C 423.7645056 368 456 375.6111584 456 385 C 456 394.3888416 423.7645056 402 384 402 C 344.2354944 402 312 394.3888416 312 385 Z" stroke-miterlimit="10"/></g><g transform="translate(-14,-6) scale(1,1)"><g><path fill="none" stroke="none"/><text fill="#000000" stroke="none" font-family="Arial" font-size="13px" font-style="normal" font-weight="bold" text-decoration="none" x="341.391357421875" y="392">Imprimir Ticket</text></g></g><g transform="translate(-14,-6) scale(1,1)"><path fill="#C0C0C0" stroke="none" d="M 31 112 C 31 102.6111584 80.0248144 95 140.5 95 C 200.9751856 95 250 102.6111584 250 112 C 250 121.3888416 200.9751856 129 140.5 129 C 80.0248144 129 31 121.3888416 31 112 Z" opacity="0.2"/></g><g transform="translate(-14,-6) scale(1,1)"><path fill="#a3ffa3" stroke="none" d="M 24 105 C 24 95.6111584 73.0248144 88 133.5 88 C 193.9751856 88 243 95.6111584 243 105 C 243 114.3888416 193.9751856 122 133.5 122 C 73.0248144 122 24 114.3888416 24 105 Z"/></g><g transform="translate(-14,-6) scale(1,1)"><path fill="none" stroke="#000000" d="M 24 105 C 24 95.6111584 73.0248144 88 133.5 88 C 193.9751856 88 243 95.6111584 243 105 C 243 114.3888416 193.9751856 122 133.5 122 C 73.0248144 122 24 114.3888416 24 105 Z" stroke-miterlimit="10"/></g><g transform="translate(-14,-6) scale(1,1)"><g><path fill="none" stroke="none"/><text fill="#000000" stroke="none" font-family="Arial" font-size="13px" font-style="normal" font-weight="bold" text-decoration="none" x="65.935546875" y="112">Calcular costo de envio</text></g></g><g transform="translate(-14,-6) scale(1,1)"><path fill="#C0C0C0" stroke="none" d="M 103 440 C 103 430.6111584 160.5314032 423 231.5 423 C 302.4685968 423 360 430.6111584 360 440 C 360 449.3888416 302.4685968 457 231.5 457 C 160.5314032 457 103 449.3888416 103 440 Z" opacity="0.2"/></g><g transform="translate(-14,-6) scale(1,1)"><path fill="#a3ffa3" stroke="none" d="M 96 433 C 96 423.6111584 153.5314032 416 224.5 416 C 295.4685968 416 353 423.6111584 353 433 C 353 442.3888416 295.4685968 450 224.5 450 C 153.5314032 450 96 442.3888416 96 433 Z"/></g><g transform="translate(-14,-6) scale(1,1)"><path fill="none" stroke="#000000" d="M 96 433 C 96 423.6111584 153.5314032 416 224.5 416 C 295.4685968 416 353 423.6111584 353 433 C 353 442.3888416 295.4685968 450 224.5 450 C 153.5314032 450 96 442.3888416 96 433 Z" stroke-miterlimit="10"/></g><g transform="translate(-14,-6) scale(1,1)"><g><path fill="none" stroke="none"/><text fill="#000000" stroke="none" font-family="Arial" font-size="13px" font-style="normal" font-weight="bold" text-decoration="none" x="164.524169921875" y="440">Registrar de Entrega</text></g></g><g transform="translate(-14,-6) scale(1,1)"><path fill="#C0C0C0" stroke="none" d="M 279 112 C 279 102.6111584 314.81721600000003 95 359 95 C 403.18278399999997 95 439 102.6111584 439 112 C 439 121.3888416 403.18278399999997 129 359 129 C 314.81721600000003 129 279 121.3888416 279 112 Z" opacity="0.2"/></g><g transform="translate(-14,-6) scale(1,1)"><path fill="#a3ffa3" stroke="none" d="M 272 105 C 272 95.6111584 307.81721600000003 88 352 88 C 396.18278399999997 88 432 95.6111584 432 105 C 432 114.3888416 396.18278399999997 122 352 122 C 307.81721600000003 122 272 114.3888416 272 105 Z"/></g><g transform="translate(-14,-6) scale(1,1)"><path fill="none" stroke="#000000" d="M 272 105 C 272 95.6111584 307.81721600000003 88 352 88 C 396.18278399999997 88 432 95.6111584 432 105 C 432 114.3888416 396.18278399999997 122 352 122 C 307.81721600000003 122 272 114.3888416 272 105 Z" stroke-miterlimit="10"/></g><g transform="translate(-14,-6) scale(1,1)"><g><path fill="none" stroke="none"/><text fill="#000000" stroke="none" font-family="Arial" font-size="13px" font-style="normal" font-weight="bold" text-decoration="none" x="303.5927734375" y="112">Registrar Cliente</text></g></g><g transform="translate(-14,-6) scale(1,1)"><path fill="#C0C0C0" stroke="none" d="M 615 304 C 615 294.6111584 647.9070672 287 688.5 287 C 729.0929328 287 762 294.6111584 762 304 C 762 313.3888416 729.0929328 321 688.5 321 C 647.9070672 321 615 313.3888416 615 304 Z" opacity="0.2"/></g><g transform="translate(-14,-6) scale(1,1)"><path fill="#adc8ff" stroke="none" d="M 608 297 C 608 287.6111584 640.9070672 280 681.5 280 C 722.0929328 280 755 287.6111584 755 297 C 755 306.3888416 722.0929328 314 681.5 314 C 640.9070672 314 608 306.3888416 608 297 Z"/></g><g transform="translate(-14,-6) scale(1,1)"><path fill="none" stroke="#000000" d="M 608 297 C 608 287.6111584 640.9070672 280 681.5 280 C 722.0929328 280 755 287.6111584 755 297 C 755 306.3888416 722.0929328 314 681.5 314 C 640.9070672 314 608 306.3888416 608 297 Z" stroke-miterlimit="10"/></g><g transform="translate(-14,-6) scale(1,1)"><g><path fill="none" stroke="none"/><text fill="#000000" stroke="none" font-family="Arial" font-size="13px" font-style="normal" font-weight="bold" text-decoration="none" x="637.06640625" y="304">Modificar Menu</text></g></g><g transform="translate(-14,-6) scale(1,1)"><path fill="#C0C0C0" stroke="none" d="M 455 336 C 455 326.6111584 485.8923488 319 524 319 C 562.1076512 319 593 326.6111584 593 336 C 593 345.3888416 562.1076512 353 524 353 C 485.8923488 353 455 345.3888416 455 336 Z" opacity="0.2"/></g><g transform="translate(-14,-6) scale(1,1)"><path fill="#adc8ff" stroke="none" d="M 448 329 C 448 319.6111584 478.8923488 312 517 312 C 555.1076512 312 586 319.6111584 586 329 C 586 338.3888416 555.1076512 346 517 346 C 478.8923488 346 448 338.3888416 448 329 Z"/></g><g transform="translate(-14,-6) scale(1,1)"><path fill="none" stroke="#000000" d="M 448 329 C 448 319.6111584 478.8923488 312 517 312 C 555.1076512 312 586 319.6111584 586 329 C 586 338.3888416 555.1076512 346 517 346 C 478.8923488 346 448 338.3888416 448 329 Z" stroke-miterlimit="10"/></g><g transform="translate(-14,-6) scale(1,1)"><g><path fill="none" stroke="none"/><text fill="#000000" stroke="none" font-family="Arial" font-size="13px" font-style="normal" font-weight="bold" text-decoration="none" x="475.457763671875" y="336">Eliminar Menu</text></g></g><g transform="translate(-14,-6) scale(1,1)"><path fill="none" stroke="#000000" d="M 665 528 L 567 583" stroke-miterlimit="10"/></g><g transform="translate(-14,-6) scale(1,1)"><path fill="none" stroke="#000000" d="M 573.8021592929028 574.3553120962075 L 567 583 L 577.9225704007356 581.6971355247097" stroke-miterlimit="10"/></g><g transform="translate(-14,-6) scale(1,1)"><path fill="none" stroke="#000000" d="M 471 539 L 517 583" stroke-miterlimit="10" stroke-dasharray="3"/></g><g transform="translate(-14,-6) scale(1,1)"><path fill="none" stroke="#000000" d="M 506.74631176573826 579.0173027237106 L 517 583 L 512.5657397688582 572.9333552659034" stroke-miterlimit="10"/></g><g transform="translate(-14,-6) scale(1,1)"><g><path fill="none" stroke="none"/><text fill="#000000" stroke="none" font-family="Helvetica" font-size="16px" font-style="normal" font-weight="normal" text-decoration="none" x="397.5" y="581.5">«include»</text></g></g><g transform="translate(-14,-6) scale(1,1)"><path fill="none" stroke="#000000" d="M 284 339 L 345 367" stroke-miterlimit="10" stroke-dasharray="3"/></g><g transform="translate(-14,-6) scale(1,1)"><path fill="none" stroke="#000000" d="M 334.00778615244434 366.58619481684553 L 345 367 L 337.51993549923935 358.9347265970421" stroke-miterlimit="10"/></g><g transform="translate(-14,-6) scale(1,1)"><g><path fill="none" stroke="none"/><text fill="#000000" stroke="none" font-family="Helvetica" font-size="16px" font-style="normal" font-weight="normal" text-decoration="none" x="348.5" y="347.5">«include»</text></g></g><g transform="translate(-14,-6) scale(1,1)"><path fill="none" stroke="#000000" d="M 333 123 L 268 183" stroke-miterlimit="10" stroke-dasharray="3"/></g><g transform="translate(-14,-6) scale(1,1)"><path fill="none" stroke="#000000" d="M 272.6123363560042 173.01369170618682 L 268 183 L 278.32280062801857 179.20002800086905" stroke-miterlimit="10"/></g><g transform="translate(-14,-6) scale(1,1)"><g><path fill="none" stroke="none"/><text fill="#000000" stroke="none" font-family="Helvetica" font-size="16px" font-style="normal" font-weight="normal" text-decoration="none" x="326.5" y="166.5">«extend»</text></g></g><g transform="translate(-14,-6) scale(1,1)"><path fill="none" stroke="#000000" d="M 155 123 L 226 183" stroke-miterlimit="10" stroke-dasharray="3"/></g><g transform="translate(-14,-6) scale(1,1)"><path fill="none" stroke="#000000" d="M 215.5207332723106 179.6556063554148 L 226 183 L 220.95488286003166 173.22519600994488" stroke-miterlimit="10"/></g><g transform="translate(-14,-6) scale(1,1)"><g><path fill="none" stroke="none"/><text fill="#000000" stroke="none" font-family="Helvetica" font-size="16px" font-style="normal" font-weight="normal" text-decoration="none" x="102.5" y="165.5">«extend»</text></g></g><g transform="translate(-14,-6) scale(1,1)"><path fill="none" stroke="#000000" d="M 93 305 L 205 415" stroke-miterlimit="10"/></g><g transform="translate(-14,-6) scale(1,1)"><path fill="none" stroke="#000000" d="M 194.79981548551845 410.8822049746824 L 205 415 L 200.6991011463944 404.8756595745177" stroke-miterlimit="10"/></g><g transform="translate(-14,-6) scale(1,1)"><g><path fill="none" stroke="none"/><text fill="#000000" stroke="none" font-family="Helvetica" font-size="20px" font-style="normal" font-weight="normal" text-decoration="none" x="357" y="41">Diagrama Caso de Uso</text></g></g><g transform="translate(-14,-6) scale(1,1)"><path fill="none" stroke="#000000" d="M 694 315 L 724 359" stroke-miterlimit="10" stroke-dasharray="3"/></g><g transform="translate(-14,-6) scale(1,1)"><path fill="none" stroke="#000000" d="M 714.7969723457876 352.97469652251425 L 724 359 L 721.7530096858961 348.23194379062204" stroke-miterlimit="10"/></g><g transform="translate(-14,-6) scale(1,1)"><g><path fill="none" stroke="none"/><text fill="#000000" stroke="none" font-family="Helvetica" font-size="16px" font-style="normal" font-weight="normal" text-decoration="none" x="711.5" y="334.5">«extend»</text></g></g><g transform="translate(-14,-6) scale(1,1)"><path fill="none" stroke="#000000" d="M 587 344 L 663 361" stroke-miterlimit="10" stroke-dasharray="3"/></g><g transform="translate(-14,-6) scale(1,1)"><path fill="none" stroke="#000000" d="M 652.163513441371 362.88959230117337 L 663 361 L 654.001303340319 354.67359039999417" stroke-miterlimit="10"/></g><g transform="translate(-14,-6) scale(1,1)"><g><path fill="none" stroke="none"/><text fill="#000000" stroke="none" font-family="Helvetica" font-size="16px" font-style="normal" font-weight="normal" text-decoration="none" x="534.5" y="365.5">«extend»</text></g></g></g></svg>