<svg version="1.1" xmlns="http://www.w3.org/2000/svg" xmlns:xlink="http://www.w3.org/1999/xlink" width="880.72802734375" height="606"><defs/><g><g transform="translate(-14,-6) scale(1,1)"><path fill="#2fff00" stroke="none" d="M 49.07707492897727 241.68 C 49.07707492897727 236.886167936 52.962917253922726 233 57.75634765625 233 C 62.549778058577274 233 66.43562038352273 236.886167936 66.43562038352273 241.68 C 66.43562038352273 246.47383206400002 62.549778058577274 250.36 57.75634765625 250.36 C 52.962917253922726 250.36 49.07707492897727 246.47383206400002 49.07707492897727 241.68 Z"/></g><g transform="translate(-14,-6) scale(1,1)"><path fill="none" stroke="#000000" d="M 49.07707492897727 241.68 C 49.07707492897727 236.886167936 52.962917253922726 233 57.75634765625 233 C 62.549778058577274 233 66.43562038352273 236.886167936 66.43562038352273 241.68 C 66.43562038352273 246.47383206400002 62.549778058577274 250.36 57.75634765625 250.36 C 52.962917253922726 250.36 49.07707492897727 246.47383206400002 49.07707492897727 241.68 Z" stroke-miterlimit="10"/></g><g transform="translate(-14,-6) scale(1,1)"><path fill="none" stroke="#000000" d="M 57.75634765625 250.36 L 57.75634765625 267.64" stroke-miterlimit="10"/></g><g transform="translate(-14,-6) scale(1,1)"><path fill="none" stroke="#000000" d="M 48.56652947443182 256.84 L 66.94616583806818 256.84" stroke-miterlimit="10"/></g><g transform="translate(-14,-6) scale(1,1)"><path fill="none" stroke="#000000" d="M 57.75634765625 267.64 L 44.992711292613635 285" stroke-miterlimit="10"/></g><g transform="translate(-14,-6) scale(1,1)"><path fill="none" stroke="#000000" d="M 57.75634765625 267.64 L 70.51998401988637 285" stroke-miterlimit="10"/></g><g transform="translate(-14,-6) scale(1,1)"><g><path fill="none" stroke="none"/><text fill="#000000" stroke="none" font-family="Arial" font-size="13px" font-style="normal" font-weight="bold" text-decoration="none" x="30.65185546875" y="305.5">vendedor</text></g></g><g transform="translate(-14,-6) scale(1,1)"><path fill="#C0C0C0" stroke="none" d="M 175 208 C 175 198.6111584 210.817216 191 255 191 C 299.18278399999997 191 335 198.6111584 335 208 C 335 217.3888416 299.18278399999997 225 255 225 C 210.817216 225 175 217.3888416 175 208 Z" opacity="0.2"/></g><g transform="translate(-14,-6) scale(1,1)"><path fill="#a3ffa3" stroke="none" d="M 168 201 C 168 191.6111584 203.817216 184 248 184 C 292.18278399999997 184 328 191.6111584 328 201 C 328 210.3888416 292.18278399999997 218 248 218 C 203.817216 218 168 210.3888416 168 201 Z"/></g><g transform="translate(-14,-6) scale(1,1)"><path fill="none" stroke="#000000" d="M 168 201 C 168 191.6111584 203.817216 184 248 184 C 292.18278399999997 184 328 191.6111584 328 201 C 328 210.3888416 292.18278399999997 218 248 218 C 203.817216 218 168 210.3888416 168 201 Z" stroke-miterlimit="10"/></g><g transform="translate(-14,-6) scale(1,1)"><g><path fill="none" stroke="none"/><text fill="#000000" stroke="none" font-family="Arial" font-size="13px" font-style="normal" font-weight="bold" text-decoration="none" x="199.58642578125" y="208">Registrar Pedido</text></g></g><g transform="translate(-14,-6) scale(1,1)"><path fill="#C0C0C0" stroke="none" d="M 175 272 C 175 262.6111584 210.1456432 255 253.5 255 C 296.8543568 255 332 262.6111584 332 272 C 332 281.3888416 296.8543568 289 253.5 289 C 210.1456432 289 175 281.3888416 175 272 Z" opacity="0.2"/></g><g transform="translate(-14,-6) scale(1,1)"><path fill="#a3ffa3" stroke="none" d="M 168 265 C 168 255.6111584 203.1456432 248 246.5 248 C 289.8543568 248 325 255.6111584 325 265 C 325 274.3888416 289.8543568 282 246.5 282 C 203.1456432 282 168 274.3888416 168 265 Z"/></g><g transform="translate(-14,-6) scale(1,1)"><path fill="none" stroke="#000000" d="M 168 265 C 168 255.6111584 203.1456432 248 246.5 248 C 289.8543568 248 325 255.6111584 325 265 C 325 274.3888416 289.8543568 282 246.5 282 C 203.1456432 282 168 274.3888416 168 265 Z" stroke-miterlimit="10"/></g><g transform="translate(-14,-6) scale(1,1)"><g><path fill="none" stroke="none"/><text fill="#000000" stroke="none" font-family="Arial" font-size="13px" font-style="normal" font-weight="bold" text-decoration="none" x="198.44189453125" y="272">Cancelar Pedido</text></g></g><g transform="translate(-14,-6) scale(1,1)"><path fill="#C0C0C0" stroke="none" d="M 175 328 C 175 318.6111584 209.697928 311 252.5 311 C 295.302072 311 330 318.6111584 330 328 C 330 337.3888416 295.302072 345 252.5 345 C 209.697928 345 175 337.3888416 175 328 Z" opacity="0.2"/></g><g transform="translate(-14,-6) scale(1,1)"><path fill="#a3ffa3" stroke="none" d="M 168 321 C 168 311.6111584 202.697928 304 245.5 304 C 288.302072 304 323 311.6111584 323 321 C 323 330.3888416 288.302072 338 245.5 338 C 202.697928 338 168 330.3888416 168 321 Z"/></g><g transform="translate(-14,-6) scale(1,1)"><path fill="none" stroke="#000000" d="M 168 321 C 168 311.6111584 202.697928 304 245.5 304 C 288.302072 304 323 311.6111584 323 321 C 323 330.3888416 288.302072 338 245.5 338 C 202.697928 338 168 330.3888416 168 321 Z" stroke-miterlimit="10"/></g><g transform="translate(-14,-6) scale(1,1)"><g><path fill="none" stroke="none"/><text fill="#000000" stroke="none" font-family="Arial" font-size="13px" font-style="normal" font-weight="bold" text-decoration="none" x="197.813232421875" y="328">Generar Factura</text></g></g><g transform="translate(-14,-6) scale(1,1)"><path fill="none" stroke="#000000" d="M 93 258 L 199 219" stroke-miterlimit="10"/></g><g transform="translate(-14,-6) scale(1,1)"><path fill="none" stroke="#000000" d="M 190.9159142760274 226.45972908405273 L 199 219 L 188.00886314373741 218.55851318603382" stroke-miterlimit="10"/></g><g transform="translate(-14,-6) scale(1,1)"><path fill="none" stroke="#000000" d="M 93 270 L 167 268" stroke-miterlimit="10"/></g><g transform="translate(-14,-6) scale(1,1)"><path fill="none" stroke="#000000" d="M 156.95476404528247 272.4825477815691 L 167 268 L 156.72730560446007 264.06658547114057" stroke-miterlimit="10"/></g><g transform="translate(-14,-6) scale(1,1)"><path fill="none" stroke="#000000" d="M 93 280 L 177 303" stroke-miterlimit="10"/></g><g transform="translate(-14,-6) scale(1,1)"><path fill="none" stroke="#000000" d="M 166.0864301200108 304.37622399143163 L 177 303 L 168.30980341413346 296.2560780476793" stroke-miterlimit="10"/></g><g transform="translate(-14,-6) scale(1,1)"><path fill="#ff0000" stroke="none" d="M 797.1456784446023 113.68 C 797.1456784446023 108.886167936 801.0315207695477 105 805.824951171875 105 C 810.6183815742023 105 814.5042238991477 108.886167936 814.5042238991477 113.68 C 814.5042238991477 118.473832064 810.6183815742023 122.36 805.824951171875 122.36 C 801.0315207695477 122.36 797.1456784446023 118.473832064 797.1456784446023 113.68 Z"/></g><g transform="translate(-14,-6) scale(1,1)"><path fill="none" stroke="#000000" d="M 797.1456784446023 113.68 C 797.1456784446023 108.886167936 801.0315207695477 105 805.824951171875 105 C 810.6183815742023 105 814.5042238991477 108.886167936 814.5042238991477 113.68 C 814.5042238991477 118.473832064 810.6183815742023 122.36 805.824951171875 122.36 C 801.0315207695477 122.36 797.1456784446023 118.473832064 797.1456784446023 113.68 Z" stroke-miterlimit="10"/></g><g transform="translate(-14,-6) scale(1,1)"><path fill="none" stroke="#000000" d="M 805.824951171875 122.36 L 805.824951171875 139.64" stroke-miterlimit="10"/></g><g transform="translate(-14,-6) scale(1,1)"><path fill="none" stroke="#000000" d="M 796.6351329900568 128.84 L 815.0147693536932 128.84" stroke-miterlimit="10"/></g><g transform="translate(-14,-6) scale(1,1)"><path fill="none" stroke="#000000" d="M 805.824951171875 139.64 L 793.0613148082386 157" stroke-miterlimit="10"/></g><g transform="translate(-14,-6) scale(1,1)"><path fill="none" stroke="#000000" d="M 805.824951171875 139.64 L 818.5885875355114 157" stroke-miterlimit="10"/></g><g transform="translate(-14,-6) scale(1,1)"><g><path fill="none" stroke="none"/><text fill="#000000" stroke="none" font-family="Arial" font-size="13px" font-style="normal" font-weight="bold" text-decoration="none" x="736.806884765625" y="177.5">Responsable de Cocina</text></g></g><g transform="translate(-14,-6) scale(1,1)"><path fill="#C0C0C0" stroke="none" d="M 519 208 C 519 198.6111584 556.3842192 191 602.5 191 C 648.6157808 191 686 198.6111584 686 208 C 686 217.3888416 648.6157808 225 602.5 225 C 556.3842192 225 519 217.3888416 519 208 Z" opacity="0.2"/></g><g transform="translate(-14,-6) scale(1,1)"><path fill="#ffa182" stroke="none" d="M 512 201 C 512 191.6111584 549.3842192 184 595.5 184 C 641.6157808 184 679 191.6111584 679 201 C 679 210.3888416 641.6157808 218 595.5 218 C 549.3842192 218 512 210.3888416 512 201 Z"/></g><g transform="translate(-14,-6) scale(1,1)"><path fill="none" stroke="#000000" d="M 512 201 C 512 191.6111584 549.3842192 184 595.5 184 C 641.6157808 184 679 191.6111584 679 201 C 679 210.3888416 641.6157808 218 595.5 218 C 549.3842192 218 512 210.3888416 512 201 Z" stroke-miterlimit="10"/></g><g transform="translate(-14,-6) scale(1,1)"><g><path fill="none" stroke="none"/><text fill="#000000" stroke="none" font-family="Arial" font-size="13px" font-style="normal" font-weight="bold" text-decoration="none" x="544.921875" y="208">Confirmar Pedido</text></g></g><g transform="translate(-14,-6) scale(1,1)"><path fill="none" stroke="#000000" d="M 727 165 L 660 183" stroke-miterlimit="10"/></g><g transform="translate(-14,-6) scale(1,1)"><path fill="none" stroke="#000000" d="M 668.7224651542266 176.29786588963609 L 660 183 L 670.9068387370769 184.42858978135698" stroke-miterlimit="10"/></g><g transform="translate(-14,-6) scale(1,1)"><path fill="#C0C0C0" stroke="none" d="M 479 136 C 479 126.6111584 526.4578112 119 585 119 C 643.5421888 119 691 126.6111584 691 136 C 691 145.3888416 643.5421888 153 585 153 C 526.4578112 153 479 145.3888416 479 136 Z" opacity="0.2"/></g><g transform="translate(-14,-6) scale(1,1)"><path fill="#ffa182" stroke="none" d="M 472 129 C 472 119.6111584 519.4578112 112 578 112 C 636.5421888 112 684 119.6111584 684 129 C 684 138.3888416 636.5421888 146 578 146 C 519.4578112 146 472 138.3888416 472 129 Z"/></g><g transform="translate(-14,-6) scale(1,1)"><path fill="none" stroke="#000000" d="M 472 129 C 472 119.6111584 519.4578112 112 578 112 C 636.5421888 112 684 119.6111584 684 129 C 684 138.3888416 636.5421888 146 578 146 C 519.4578112 146 472 138.3888416 472 129 Z" stroke-miterlimit="10"/></g><g transform="translate(-14,-6) scale(1,1)"><g><path fill="none" stroke="none"/><text fill="#000000" stroke="none" font-family="Arial" font-size="13px" font-style="normal" font-weight="bold" text-decoration="none" x="512.2509765625" y="136">Informar Cierre Pedido</text></g></g><g transform="translate(-14,-6) scale(1,1)"><path fill="none" stroke="#000000" d="M 727 138 L 685 136" stroke-miterlimit="10"/></g><g transform="translate(-14,-6) scale(1,1)"><path fill="none" stroke="#000000" d="M 695.3513984503659 132.27863598639388 L 685 136 L 694.9509457683021 140.68814230973317" stroke-miterlimit="10"/></g><g transform="translate(-14,-6) scale(1,1)"><path fill="#2b2bff" stroke="none" d="M 769.6847409446023 441.68 C 769.6847409446023 436.886167936 773.5705832695477 433 778.364013671875 433 C 783.1574440742023 433 787.0432863991477 436.886167936 787.0432863991477 441.68 C 787.0432863991477 446.473832064 783.1574440742023 450.36 778.364013671875 450.36 C 773.5705832695477 450.36 769.6847409446023 446.473832064 769.6847409446023 441.68 Z"/></g><g transform="translate(-14,-6) scale(1,1)"><path fill="none" stroke="#000000" d="M 769.6847409446023 441.68 C 769.6847409446023 436.886167936 773.5705832695477 433 778.364013671875 433 C 783.1574440742023 433 787.0432863991477 436.886167936 787.0432863991477 441.68 C 787.0432863991477 446.473832064 783.1574440742023 450.36 778.364013671875 450.36 C 773.5705832695477 450.36 769.6847409446023 446.473832064 769.6847409446023 441.68 Z" stroke-miterlimit="10"/></g><g transform="translate(-14,-6) scale(1,1)"><path fill="none" stroke="#000000" d="M 778.364013671875 450.36 L 778.364013671875 467.64" stroke-miterlimit="10"/></g><g transform="translate(-14,-6) scale(1,1)"><path fill="none" stroke="#000000" d="M 769.1741954900568 456.84 L 787.5538318536932 456.84" stroke-miterlimit="10"/></g><g transform="translate(-14,-6) scale(1,1)"><path fill="none" stroke="#000000" d="M 778.364013671875 467.64 L 765.6003773082386 485" stroke-miterlimit="10"/></g><g transform="translate(-14,-6) scale(1,1)"><path fill="none" stroke="#000000" d="M 778.364013671875 467.64 L 791.1276500355114 485" stroke-miterlimit="10"/></g><g transform="translate(-14,-6) scale(1,1)"><g><path fill="none" stroke="none"/><text fill="#000000" stroke="none" font-family="Arial" font-size="13px" font-style="normal" font-weight="bold" text-decoration="none" x="682.254150390625" y="505.5">Responsable Gestión de Pizzeria</text></g></g><g transform="translate(-14,-6) scale(1,1)"><path fill="#C0C0C0" stroke="none" d="M 711 368 C 711 358.6111584 743.6832096 351 784 351 C 824.3167904 351 857 358.6111584 857 368 C 857 377.3888416 824.3167904 385 784 385 C 743.6832096 385 711 377.3888416 711 368 Z" opacity="0.2"/></g><g transform="translate(-14,-6) scale(1,1)"><path fill="#adc8ff" stroke="none" d="M 704 361 C 704 351.6111584 736.6832096 344 777 344 C 817.3167904 344 850 351.6111584 850 361 C 850 370.3888416 817.3167904 378 777 378 C 736.6832096 378 704 370.3888416 704 361 Z"/></g><g transform="translate(-14,-6) scale(1,1)"><path fill="none" stroke="#000000" d="M 704 361 C 704 351.6111584 736.6832096 344 777 344 C 817.3167904 344 850 351.6111584 850 361 C 850 370.3888416 817.3167904 378 777 378 C 736.6832096 378 704 370.3888416 704 361 Z" stroke-miterlimit="10"/></g><g transform="translate(-14,-6) scale(1,1)"><g><path fill="none" stroke="none"/><text fill="#000000" stroke="none" font-family="Arial" font-size="13px" font-style="normal" font-weight="bold" text-decoration="none" x="732.56640625" y="368">Registrar Menu</text></g></g><g transform="translate(-14,-6) scale(1,1)"><path fill="#C0C0C0" stroke="none" d="M 439 456 C 439 446.6111584 477.5035072 439 525 439 C 572.4964927999999 439 611 446.6111584 611 456 C 611 465.3888416 572.4964927999999 473 525 473 C 477.5035072 473 439 465.3888416 439 456 Z" opacity="0.2"/></g><g transform="translate(-14,-6) scale(1,1)"><path fill="#adc8ff" stroke="none" d="M 432 449 C 432 439.6111584 470.5035072 432 518 432 C 565.4964927999999 432 604 439.6111584 604 449 C 604 458.3888416 565.4964927999999 466 518 466 C 470.5035072 466 432 458.3888416 432 449 Z"/></g><g transform="translate(-14,-6) scale(1,1)"><path fill="none" stroke="#000000" d="M 432 449 C 432 439.6111584 470.5035072 432 518 432 C 565.4964927999999 432 604 439.6111584 604 449 C 604 458.3888416 565.4964927999999 466 518 466 C 470.5035072 466 432 458.3888416 432 449 Z" stroke-miterlimit="10"/></g><g transform="translate(-14,-6) scale(1,1)"><g><path fill="none" stroke="none"/><text fill="#000000" stroke="none" font-family="Arial" font-size="13px" font-style="normal" font-weight="bold" text-decoration="none" x="465.98095703125" y="456">Actualizar Precios</text></g></g><g transform="translate(-14,-6) scale(1,1)"><path fill="none" stroke="#000000" d="M 778 431 L 777 379" stroke-miterlimit="10"/></g><g transform="translate(-14,-6) scale(1,1)"><path fill="none" stroke="#000000" d="M 781.4041395113403 389.07985888614775 L 777 379 L 772.9866603419617 389.2417334855589" stroke-miterlimit="10"/></g><g transform="translate(-14,-6) scale(1,1)"><path fill="none" stroke="#000000" d="M 671 462 L 605 456" stroke-miterlimit="10"/></g><g transform="translate(-14,-6) scale(1,1)"><path fill="none" stroke="#000000" d="M 615.5020506807682 452.72785521430103 L 605 456 L 614.739827019728 461.11231548574403" stroke-miterlimit="10"/></g><g transform="translate(-14,-6) scale(1,1)"><path fill="#C0C0C0" stroke="none" d="M 375 512 C 375 502.6111584 430.9644 495 500 495 C 569.0356 495 625 502.6111584 625 512 C 625 521.3888416 569.0356 529 500 529 C 430.9644 529 375 521.3888416 375 512 Z" opacity="0.2"/></g><g transform="translate(-14,-6) scale(1,1)"><path fill="#adc8ff" stroke="none" d="M 368 505 C 368 495.6111584 423.9644 488 493 488 C 562.0356 488 618 495.6111584 618 505 C 618 514.3888416 562.0356 522 493 522 C 423.9644 522 368 514.3888416 368 505 Z"/></g><g transform="translate(-14,-6) scale(1,1)"><path fill="none" stroke="#000000" d="M 368 505 C 368 495.6111584 423.9644 488 493 488 C 562.0356 488 618 495.6111584 618 505 C 618 514.3888416 562.0356 522 493 522 C 423.9644 522 368 514.3888416 368 505 Z" stroke-miterlimit="10"/></g><g transform="translate(-14,-6) scale(1,1)"><g><path fill="none" stroke="none"/><text fill="#000000" stroke="none" font-family="Arial" font-size="13px" font-style="normal" font-weight="bold" text-decoration="none" x="414.60009765625" y="512">Registrar Personal Entrega</text></g></g><g transform="translate(-14,-6) scale(1,1)"><path fill="#C0C0C0" stroke="none" d="M 495 592 C 495 582.6111584 534.17508 575 582.5 575 C 630.82492 575 670 582.6111584 670 592 C 670 601.3888416 630.82492 609 582.5 609 C 534.17508 609 495 601.3888416 495 592 Z" opacity="0.2"/></g><g transform="translate(-14,-6) scale(1,1)"><path fill="#adc8ff" stroke="none" d="M 488 585 C 488 575.6111584 527.17508 568 575.5 568 C 623.82492 568 663 575.6111584 663 585 C 663 594.3888416 623.82492 602 575.5 602 C 527.17508 602 488 594.3888416 488 585 Z"/></g><g transform="translate(-14,-6) scale(1,1)"><path fill="none" stroke="#000000" d="M 488 585 C 488 575.6111584 527.17508 568 575.5 568 C 623.82492 568 663 575.6111584 663 585 C 663 594.3888416 623.82492 602 575.5 602 C 527.17508 602 488 594.3888416 488 585 Z" stroke-miterlimit="10"/></g><g transform="translate(-14,-6) scale(1,1)"><g><path fill="none" stroke="none"/><text fill="#000000" stroke="none" font-family="Arial" font-size="13px" font-style="normal" font-weight="bold" text-decoration="none" x="522.392333984375" y="592">Registrar Vehiculo</text></g></g><g transform="translate(-14,-6) scale(1,1)"><path fill="none" stroke="#000000" d="M 671 484 L 619 490" stroke-miterlimit="10"/></g><g transform="translate(-14,-6) scale(1,1)"><path fill="none" stroke="#000000" d="M 628.6131797980859 484.65333990516746 L 619 490 L 629.5782042337476 493.0168850142364" stroke-miterlimit="10"/></g><g transform="translate(-14,-6) scale(1,1)"><path fill="#C0C0C0" stroke="none" d="M 319 392 C 319 382.6111584 351.2354944 375 391 375 C 430.7645056 375 463 382.6111584 463 392 C 463 401.3888416 430.7645056 409 391 409 C 351.2354944 409 319 401.3888416 319 392 Z" opacity="0.2"/></g><g transform="translate(-14,-6) scale(1,1)"><path fill="#a3ffa3" stroke="none" d="M 312 385 C 312 375.6111584 344.2354944 368 384 368 C 423.7645056 368 456 375.6111584 456 385 C 456 394.3888416 423.7645056 402 384 402 C 344.2354944 402 312 394.3888416 312 385 Z"/></g><g transform="translate(-14,-6) scale(1,1)"><path fill="none" stroke="#000000" d="M 312 385 C 312 375.6111584 344.2354944 368 384 368 C 423.7645056 368 456 375.6111584 456 385 C 456 394.3888416 423.7645056 402 384 402 C 344.2354944 402 312 394.3888416 312 385 Z" stroke-miterlimit="10"/></g><g transform="translate(-14,-6) scale(1,1)"><g><path fill="none" stroke="none"/><text fill="#000000" stroke="none" font-family="Arial" font-size="13px" font-style="normal" font-weight="bold" text-decoration="none" x="341.391357421875" y="392">Imprimir Ticket</text></g></g><g transform="translate(-14,-6) scale(1,1)"><path fill="#C0C0C0" stroke="none" d="M 215 128 C 215 118.6111584 264.02481439999997 111 324.5 111 C 384.97518560000003 111 434 118.6111584 434 128 C 434 137.3888416 384.97518560000003 145 324.5 145 C 264.02481439999997 145 215 137.3888416 215 128 Z" opacity="0.2"/></g><g transform="translate(-14,-6) scale(1,1)"><path fill="#a3ffa3" stroke="none" d="M 208 121 C 208 111.6111584 257.02481439999997 104 317.5 104 C 377.97518560000003 104 427 111.6111584 427 121 C 427 130.3888416 377.97518560000003 138 317.5 138 C 257.02481439999997 138 208 130.3888416 208 121 Z"/></g><g transform="translate(-14,-6) scale(1,1)"><path fill="none" stroke="#000000" d="M 208 121 C 208 111.6111584 257.02481439999997 104 317.5 104 C 377.97518560000003 104 427 111.6111584 427 121 C 427 130.3888416 377.97518560000003 138 317.5 138 C 257.02481439999997 138 208 130.3888416 208 121 Z" stroke-miterlimit="10"/></g><g transform="translate(-14,-6) scale(1,1)"><g><path fill="none" stroke="none"/><text fill="#000000" stroke="none" font-family="Arial" font-size="13px" font-style="normal" font-weight="bold" text-decoration="none" x="249.935546875" y="128">Calcular costo de envio</text></g></g><g transform="translate(-14,-6) scale(1,1)"><path fill="#C0C0C0" stroke="none" d="M 103 440 C 103 430.6111584 160.5314032 423 231.5 423 C 302.4685968 423 360 430.6111584 360 440 C 360 449.3888416 302.4685968 457 231.5 457 C 160.5314032 457 103 449.3888416 103 440 Z" opacity="0.2"/></g><g transform="translate(-14,-6) scale(1,1)"><path fill="#a3ffa3" stroke="none" d="M 96 433 C 96 423.6111584 153.5314032 416 224.5 416 C 295.4685968 416 353 423.6111584 353 433 C 353 442.3888416 295.4685968 450 224.5 450 C 153.5314032 450 96 442.3888416 96 433 Z"/></g><g transform="translate(-14,-6) scale(1,1)"><path fill="none" stroke="#000000" d="M 96 433 C 96 423.6111584 153.5314032 416 224.5 416 C 295.4685968 416 353 423.6111584 353 433 C 353 442.3888416 295.4685968 450 224.5 450 C 153.5314032 450 96 442.3888416 96 433 Z" stroke-miterlimit="10"/></g><g transform="translate(-14,-6) scale(1,1)"><g><path fill="none" stroke="none"/><text fill="#000000" stroke="none" font-family="Arial" font-size="13px" font-style="normal" font-weight="bold" text-decoration="none" x="164.524169921875" y="440">Registrar de Entrega</text></g></g><g transform="translate(-14,-6) scale(1,1)"><path fill="#C0C0C0" stroke="none" d="M 655 288 C 655 278.6111584 687.9070672 271 728.5 271 C 769.0929328 271 802 278.6111584 802 288 C 802 297.3888416 769.0929328 305 728.5 305 C 687.9070672 305 655 297.3888416 655 288 Z" opacity="0.2"/></g><g transform="translate(-14,-6) scale(1,1)"><path fill="#adc8ff" stroke="none" d="M 648 281 C 648 271.6111584 680.9070672 264 721.5 264 C 762.0929328 264 795 271.6111584 795 281 C 795 290.3888416 762.0929328 298 721.5 298 C 680.9070672 298 648 290.3888416 648 281 Z"/></g><g transform="translate(-14,-6) scale(1,1)"><path fill="none" stroke="#000000" d="M 648 281 C 648 271.6111584 680.9070672 264 721.5 264 C 762.0929328 264 795 271.6111584 795 281 C 795 290.3888416 762.0929328 298 721.5 298 C 680.9070672 298 648 290.3888416 648 281 Z" stroke-miterlimit="10"/></g><g transform="translate(-14,-6) scale(1,1)"><g><path fill="none" stroke="none"/><text fill="#000000" stroke="none" font-family="Arial" font-size="13px" font-style="normal" font-weight="bold" text-decoration="none" x="677.06640625" y="288">Modificar Menu</text></g></g><g transform="translate(-14,-6) scale(1,1)"><path fill="#C0C0C0" stroke="none" d="M 495 320 C 495 310.6111584 525.8923488 303 564 303 C 602.1076512 303 633 310.6111584 633 320 C 633 329.3888416 602.1076512 337 564 337 C 525.8923488 337 495 329.3888416 495 320 Z" opacity="0.2"/></g><g transform="translate(-14,-6) scale(1,1)"><path fill="#adc8ff" stroke="none" d="M 488 313 C 488 303.6111584 518.8923488 296 557 296 C 595.1076512 296 626 303.6111584 626 313 C 626 322.3888416 595.1076512 330 557 330 C 518.8923488 330 488 322.3888416 488 313 Z"/></g><g transform="translate(-14,-6) scale(1,1)"><path fill="none" stroke="#000000" d="M 488 313 C 488 303.6111584 518.8923488 296 557 296 C 595.1076512 296 626 303.6111584 626 313 C 626 322.3888416 595.1076512 330 557 330 C 518.8923488 330 488 322.3888416 488 313 Z" stroke-miterlimit="10"/></g><g transform="translate(-14,-6) scale(1,1)"><g><path fill="none" stroke="none"/><text fill="#000000" stroke="none" font-family="Arial" font-size="13px" font-style="normal" font-weight="bold" text-decoration="none" x="515.457763671875" y="320">Eliminar Menu</text></g></g><g transform="translate(-14,-6) scale(1,1)"><path fill="none" stroke="#000000" d="M 705 512 L 607 567" stroke-miterlimit="10"/></g><g transform="translate(-14,-6) scale(1,1)"><path fill="none" stroke="#000000" d="M 613.8021592929028 558.3553120962075 L 607 567 L 617.9225704007356 565.6971355247097" stroke-miterlimit="10"/></g><g transform="translate(-14,-6) scale(1,1)"><path fill="none" stroke="#000000" d="M 511 523 L 557 567" stroke-miterlimit="10" stroke-dasharray="3"/></g><g transform="translate(-14,-6) scale(1,1)"><path fill="none" stroke="#000000" d="M 546.7463117657383 563.0173027237106 L 557 567 L 552.5657397688582 556.9333552659034" stroke-miterlimit="10"/></g><g transform="translate(-14,-6) scale(1,1)"><g><path fill="none" stroke="none"/><text fill="#000000" stroke="none" font-family="Helvetica" font-size="16px" font-style="normal" font-weight="normal" text-decoration="none" x="437.5" y="565.5">«include»</text></g></g><g transform="translate(-14,-6) scale(1,1)"><path fill="none" stroke="#000000" d="M 284 339 L 345 367" stroke-miterlimit="10" stroke-dasharray="3"/></g><g transform="translate(-14,-6) scale(1,1)"><path fill="none" stroke="#000000" d="M 334.00778615244434 366.58619481684553 L 345 367 L 337.51993549923935 358.9347265970421" stroke-miterlimit="10"/></g><g transform="translate(-14,-6) scale(1,1)"><g><path fill="none" stroke="none"/><text fill="#000000" stroke="none" font-family="Helvetica" font-size="16px" font-style="normal" font-weight="normal" text-decoration="none" x="348.5" y="347.5">«include»</text></g></g><g transform="translate(-14,-6) scale(1,1)"><path fill="none" stroke="#000000" d="M 301 139 L 264 183" stroke-miterlimit="10" stroke-dasharray="3"/></g><g transform="translate(-14,-6) scale(1,1)"><path fill="none" stroke="#000000" d="M 267.31889159628554 172.51262861475263 L 264 183 L 273.76250217708673 177.93111933042636" stroke-miterlimit="10"/></g><g transform="translate(-14,-6) scale(1,1)"><g><path fill="none" stroke="none"/><text fill="#000000" stroke="none" font-family="Helvetica" font-size="16px" font-style="normal" font-weight="normal" text-decoration="none" x="191.5" y="165.5">«extend»</text></g></g><g transform="translate(-14,-6) scale(1,1)"><path fill="none" stroke="#000000" d="M 93 305 L 205 415" stroke-miterlimit="10"/></g><g transform="translate(-14,-6) scale(1,1)"><path fill="none" stroke="#000000" d="M 194.79981548551845 410.8822049746824 L 205 415 L 200.6991011463944 404.8756595745177" stroke-miterlimit="10"/></g><g transform="translate(-14,-6) scale(1,1)"><g><path fill="none" stroke="none"/><text fill="#000000" stroke="none" font-family="Helvetica" font-size="20px" font-style="normal" font-weight="normal" text-decoration="none" x="308" y="41">DIAGRAMA CASOS DE USO</text></g></g><g transform="translate(-14,-6) scale(1,1)"><path fill="none" stroke="#000000" d="M 734 299 L 764 343" stroke-miterlimit="10" stroke-dasharray="3"/></g><g transform="translate(-14,-6) scale(1,1)"><path fill="none" stroke="#000000" d="M 754.7969723457876 336.97469652251425 L 764 343 L 761.7530096858961 332.23194379062204" stroke-miterlimit="10"/></g><g transform="translate(-14,-6) scale(1,1)"><g><path fill="none" stroke="none"/><text fill="#000000" stroke="none" font-family="Helvetica" font-size="16px" font-style="normal" font-weight="normal" text-decoration="none" x="751.5" y="318.5">«extend»</text></g></g><g transform="translate(-14,-6) scale(1,1)"><path fill="none" stroke="#000000" d="M 627 328 L 703 345" stroke-miterlimit="10" stroke-dasharray="3"/></g><g transform="translate(-14,-6) scale(1,1)"><path fill="none" stroke="#000000" d="M 692.163513441371 346.88959230117337 L 703 345 L 694.001303340319 338.67359039999417" stroke-miterlimit="10"/></g><g transform="translate(-14,-6) scale(1,1)"><g><path fill="none" stroke="none"/><text fill="#000000" stroke="none" font-family="Helvetica" font-size="16px" font-style="normal" font-weight="normal" text-decoration="none" x="574.5" y="349.5">«extend»</text></g></g><g transform="translate(-14,-6) scale(1,1)"><g><path fill="none" stroke="none"/><text fill="#000000" stroke="none" font-family="Helvetica" font-size="28px" font-style="normal" font-weight="normal" text-decoration="none" x="37" y="65">DELIVERY</text></g></g></g></svg>