<svg version="1.1" xmlns="http://www.w3.org/2000/svg" xmlns:xlink="http://www.w3.org/1999/xlink" width="477" height="356"><defs/><g><g transform="translate(-46,-6) scale(1,1)"><path fill="#000000" stroke="none" d="M 80 233.5 C 80 228.2532944 84.2532944 224 89.5 224 C 94.7467056 224 99 228.2532944 99 233.5 C 99 238.7467056 94.7467056 243 89.5 243 C 84.2532944 243 80 238.7467056 80 233.5 Z"/></g><g transform="translate(-46,-6) scale(1,1)"><path fill="none" stroke="#000000" d="M 488 236.5 C 488 229.59644 493.59644 224 500.5 224 C 507.40356 224 513 229.59644 513 236.5 C 513 243.40356 507.40356 249 500.5 249 C 493.59644 249 488 243.40356 488 236.5 Z" stroke-miterlimit="10"/></g><g transform="translate(-46,-6) scale(1,1)"><path fill="#000000" stroke="none" d="M 493 236.5 C 493 232.357864 496.357864 229 500.5 229 C 504.642136 229 508 232.357864 508 236.5 C 508 240.642136 504.642136 244 500.5 244 C 496.357864 244 493 240.642136 493 236.5 Z"/></g><g transform="translate(-46,-6) scale(1,1)"><path fill="#C0C0C0" stroke="none" d="M 257 127 L 331.94091796875 127 Q 341.94091796875 127 341.94091796875 137 L 341.94091796875 157 Q 341.94091796875 167 331.94091796875 167 L 257 167 Q 247 167 247 157 L 247 137 Q 247 127 257 127 Z" opacity="0.2"/></g><g transform="translate(-46,-6) scale(1,1)"><path fill="#ffff91" stroke="none" d="M 250 120 L 324.94091796875 120 Q 334.94091796875 120 334.94091796875 130 L 334.94091796875 150 Q 334.94091796875 160 324.94091796875 160 L 250 160 Q 240 160 240 150 L 240 130 Q 240 120 250 120 Z"/></g><g transform="translate(-46,-6) scale(1,1)"><path fill="none" stroke="#000000" d="M 250 120 L 324.94091796875 120 Q 334.94091796875 120 334.94091796875 130 L 334.94091796875 150 Q 334.94091796875 160 324.94091796875 160 L 250 160 Q 240 160 240 150 L 240 130 Q 240 120 250 120 Z" stroke-miterlimit="10"/></g><g transform="translate(-46,-6) scale(1,1)"><g><path fill="none" stroke="none"/><text fill="#000000" stroke="none" font-family="Arial" font-size="13px" font-style="normal" font-weight="bold" text-decoration="none" x="248.083251953125" y="139.5">No disponible</text></g></g><g transform="translate(-46,-6) scale(1,1)"><path fill="#C0C0C0" stroke="none" d="M 265 319 L 320.447265625 319 Q 330.447265625 319 330.447265625 329 L 330.447265625 349 Q 330.447265625 359 320.447265625 359 L 265 359 Q 255 359 255 349 L 255 329 Q 255 319 265 319 Z" opacity="0.2"/></g><g transform="translate(-46,-6) scale(1,1)"><path fill="#ffff91" stroke="none" d="M 258 312 L 313.447265625 312 Q 323.447265625 312 323.447265625 322 L 323.447265625 342 Q 323.447265625 352 313.447265625 352 L 258 352 Q 248 352 248 342 L 248 322 Q 248 312 258 312 Z"/></g><g transform="translate(-46,-6) scale(1,1)"><path fill="none" stroke="#000000" d="M 258 312 L 313.447265625 312 Q 323.447265625 312 323.447265625 322 L 323.447265625 342 Q 323.447265625 352 313.447265625 352 L 258 352 Q 248 352 248 342 L 248 322 Q 248 312 258 312 Z" stroke-miterlimit="10"/></g><g transform="translate(-46,-6) scale(1,1)"><g><path fill="none" stroke="none"/><text fill="#000000" stroke="none" font-family="Arial" font-size="13px" font-style="normal" font-weight="bold" text-decoration="none" x="255.372314453125" y="331.5">Disponible</text></g></g><g transform="translate(-46,-6) scale(1,1)"><path fill="none" stroke="#000000" d="M 100 228 L 242 161" stroke-miterlimit="10"/></g><g transform="translate(-46,-6) scale(1,1)"><path fill="none" stroke="#000000" d="M 234.60529972008064 169.14361146974488 L 242 161 L 231.0127543936218 161.52956018083214" stroke-miterlimit="10"/></g><g transform="translate(-46,-6) scale(1,1)"><g><path fill="none" stroke="none"/><text fill="#000000" stroke="none" font-family="Arial" font-size="13px" font-style="normal" font-weight="normal" text-decoration="none" x="55.5" y="163.5">registrarPersonalEntrega()</text></g></g><g transform="translate(-46,-6) scale(1,1)"><path fill="none" stroke="#000000" d="M 334 161 L 487 230" stroke-miterlimit="10"/></g><g transform="translate(-46,-6) scale(1,1)"><path fill="none" stroke="#000000" d="M 476.0052747988817 229.65938621300037 L 487 230 L 479.4664055715597 221.98470493445356" stroke-miterlimit="10"/></g><g transform="translate(-46,-6) scale(1,1)"><path fill="none" stroke="#000000" d="M 100 239 L 247 313" stroke-miterlimit="10"/></g><g transform="translate(-46,-6) scale(1,1)"><path fill="none" stroke="#000000" d="M 236.02983317129858 312.1904076640314 L 247 313 L 239.81538887543758 304.6704524139174" stroke-miterlimit="10"/></g><g transform="translate(-46,-6) scale(1,1)"><g><path fill="none" stroke="none"/><text fill="#000000" stroke="none" font-family="Arial" font-size="13px" font-style="normal" font-weight="normal" text-decoration="none" x="55.5" y="324.5">registrarPersonalEntrega()</text></g></g><g transform="translate(-46,-6) scale(1,1)"><path fill="none" stroke="#000000" d="M 324 314 L 487 242" stroke-miterlimit="10"/></g><g transform="translate(-46,-6) scale(1,1)"><path fill="none" stroke="#000000" d="M 479.4047224406566 249.95686865522703 L 487 242 L 476.00297194967254 242.25568351591596" stroke-miterlimit="10"/></g><g transform="translate(-46,-6) scale(1,1)"><path fill="none" stroke="#000000" d="M 281 311 L 264 232 L 282 161" stroke-miterlimit="10"/></g><g transform="translate(-46,-6) scale(1,1)"><path fill="none" stroke="#000000" d="M 283.582985548333 171.88550213604174 L 282 161 L 275.4221274387308 169.81655219276232" stroke-miterlimit="10"/></g><g transform="translate(-46,-6) scale(1,1)"><g><path fill="none" stroke="none"/><text fill="#000000" stroke="none" font-family="Arial" font-size="13px" font-style="normal" font-weight="normal" text-decoration="none" x="174.5" y="244.5">Entregar()</text></g></g><g transform="translate(-46,-6) scale(1,1)"><path fill="none" stroke="#000000" d="M 293 161 L 312 234 L 291 311" stroke-miterlimit="10"/></g><g transform="translate(-46,-6) scale(1,1)"><path fill="none" stroke="#000000" d="M 289.6127862085847 300.08782157876317 L 291 311 L 297.7351670803088 302.30301636196066" stroke-miterlimit="10"/></g><g transform="translate(-46,-6) scale(1,1)"><g><path fill="none" stroke="none"/><text fill="#000000" stroke="none" font-family="Arial" font-size="13px" font-style="normal" font-weight="normal" text-decoration="none" x="325.5" y="244.5">ConfirmarEntrega()</text></g></g><g transform="translate(-46,-6) scale(1,1)"><g><path fill="none" stroke="none"/><text fill="#000000" stroke="none" font-family="Helvetica" font-size="28px" font-style="normal" font-weight="normal" text-decoration="none" x="61" y="89">CLASE PERSONAL DE ENTREGA</text></g></g><g transform="translate(-46,-6) scale(1,1)"><g><path fill="none" stroke="none"/><text fill="#000000" stroke="none" font-family="Helvetica" font-size="20px" font-style="normal" font-weight="normal" text-decoration="none" x="173" y="41">MÁQUINA DE ESTADO</text></g></g></g></svg>