<svg version="1.1" xmlns="http://www.w3.org/2000/svg" xmlns:xlink="http://www.w3.org/1999/xlink" width="900.71875" height="631"><defs/><g><g transform="translate(-14,-6) scale(1,1)"><path fill="#000000" stroke="none" d="M 96 124 C 96 117.3725824 101.3725824 112 108 112 C 114.6274176 112 120 117.3725824 120 124 C 120 130.6274176 114.6274176 136 108 136 C 101.3725824 136 96 130.6274176 96 124 Z"/></g><g transform="translate(-14,-6) scale(1,1)"><path fill="#C0C0C0" stroke="none" d="M 321 111 L 501 111 Q 511 111 511 121 L 511 144 Q 511 154 501 154 L 321 154 Q 311 154 311 144 L 311 121 Q 311 111 321 111 Z" opacity="0.2"/></g><g transform="translate(-14,-6) scale(1,1)"><path fill="#ffff91" stroke="none" d="M 314 104 L 494 104 Q 504 104 504 114 L 504 137 Q 504 147 494 147 L 314 147 Q 304 147 304 137 L 304 114 Q 304 104 314 104 Z"/></g><g transform="translate(-14,-6) scale(1,1)"><path fill="none" stroke="#000000" d="M 314 104 L 494 104 Q 504 104 504 114 L 504 137 Q 504 147 494 147 L 314 147 Q 304 147 304 137 L 304 114 Q 304 104 314 104 Z" stroke-miterlimit="10"/></g><g transform="translate(-14,-6) scale(1,1)"><g><path fill="none" stroke="none"/><text fill="#000000" stroke="none" font-family="Helvetica" font-size="16px" font-style="normal" font-weight="bold" text-decoration="none" x="320.83984375" y="126.5">ConfirmacionPendiente</text></g></g><g transform="translate(-14,-6) scale(1,1)"><path fill="none" stroke="#000000" d="M 121 124 L 303 125" stroke-miterlimit="10"/></g><g transform="translate(-14,-6) scale(1,1)"><path fill="none" stroke="#000000" d="M 292.81434967308263 129.15361618565896 L 303 125 L 292.8606074117161 120.7347077543674" stroke-miterlimit="10"/></g><g transform="translate(-14,-6) scale(1,1)"><g><path fill="none" stroke="none"/><text fill="#000000" stroke="none" font-family="Helvetica" font-size="16px" font-style="normal" font-weight="normal" text-decoration="none" x="152.5" y="116.5">registrarPedido()</text></g></g><g transform="translate(-14,-6) scale(1,1)"><path fill="#C0C0C0" stroke="none" d="M 689 111 L 805 111 Q 815 111 815 121 L 815 144 Q 815 154 805 154 L 689 154 Q 679 154 679 144 L 679 121 Q 679 111 689 111 Z" opacity="0.2"/></g><g transform="translate(-14,-6) scale(1,1)"><path fill="#ffff91" stroke="none" d="M 682 104 L 798 104 Q 808 104 808 114 L 808 137 Q 808 147 798 147 L 682 147 Q 672 147 672 137 L 672 114 Q 672 104 682 104 Z"/></g><g transform="translate(-14,-6) scale(1,1)"><path fill="none" stroke="#000000" d="M 682 104 L 798 104 Q 808 104 808 114 L 808 137 Q 808 147 798 147 L 682 147 Q 672 147 672 137 L 672 114 Q 672 104 682 104 Z" stroke-miterlimit="10"/></g><g transform="translate(-14,-6) scale(1,1)"><g><path fill="none" stroke="none"/><text fill="#000000" stroke="none" font-family="Helvetica" font-size="16px" font-style="normal" font-weight="bold" text-decoration="none" x="687.078125" y="126.5">EnPreparacion</text></g></g><g transform="translate(-14,-6) scale(1,1)"><path fill="none" stroke="#000000" d="M 505 125 L 671 125" stroke-miterlimit="10"/></g><g transform="translate(-14,-6) scale(1,1)"><path fill="none" stroke="#000000" d="M 660.8373251423759 129.209517756016 L 671 125 L 660.8373251423758 120.79048224398402" stroke-miterlimit="10"/></g><g transform="translate(-14,-6) scale(1,1)"><g><path fill="none" stroke="none"/><text fill="#000000" stroke="none" font-family="Helvetica" font-size="16px" font-style="normal" font-weight="normal" text-decoration="none" x="524.5" y="117.5">confirmarPedido()</text></g></g><g transform="translate(-14,-6) scale(1,1)"><path fill="#C0C0C0" stroke="none" d="M 369 287 L 445 287 Q 455 287 455 297 L 455 320 Q 455 330 445 330 L 369 330 Q 359 330 359 320 L 359 297 Q 359 287 369 287 Z" opacity="0.2"/></g><g transform="translate(-14,-6) scale(1,1)"><path fill="#ffff91" stroke="none" d="M 362 280 L 438 280 Q 448 280 448 290 L 448 313 Q 448 323 438 323 L 362 323 Q 352 323 352 313 L 352 290 Q 352 280 362 280 Z"/></g><g transform="translate(-14,-6) scale(1,1)"><path fill="none" stroke="#000000" d="M 362 280 L 438 280 Q 448 280 448 290 L 448 313 Q 448 323 438 323 L 362 323 Q 352 323 352 313 L 352 290 Q 352 280 362 280 Z" stroke-miterlimit="10"/></g><g transform="translate(-14,-6) scale(1,1)"><g><path fill="none" stroke="none"/><text fill="#000000" stroke="none" font-family="Helvetica" font-size="16px" font-style="normal" font-weight="bold" text-decoration="none" x="361.75" y="302.5">Cancelado</text></g></g><g transform="translate(-14,-6) scale(1,1)"><path fill="none" stroke="#000000" d="M 403 148 L 401 279" stroke-miterlimit="10"/></g><g transform="translate(-14,-6) scale(1,1)"><path fill="none" stroke="#000000" d="M 396.9461100116127 268.77424936926127 L 401 279 L 405.36416451274505 268.9027692853091" stroke-miterlimit="10"/></g><g transform="translate(-14,-6) scale(1,1)"><g><path fill="none" stroke="none"/><text fill="#000000" stroke="none" font-family="Helvetica" font-size="16px" font-style="normal" font-weight="normal" text-decoration="none" x="270.5" y="226.5">cancelarPedido()</text></g></g><g transform="translate(-14,-6) scale(1,1)"><path fill="none" stroke="#000000" d="M 696 148 L 443 279" stroke-miterlimit="10"/></g><g transform="translate(-14,-6) scale(1,1)"><path fill="none" stroke="#000000" d="M 450.0891019822169 270.58901711535873 L 443 279 L 453.96021511832237 278.0652890499747" stroke-miterlimit="10"/></g><g transform="translate(-14,-6) scale(1,1)"><g><path fill="none" stroke="none"/><text fill="#000000" stroke="none" font-family="Helvetica" font-size="16px" font-style="normal" font-weight="normal" text-decoration="none" x="537.5" y="255.5">cancelarPedido()</text></g></g><g transform="translate(-14,-6) scale(1,1)"><path fill="#C0C0C0" stroke="none" d="M 657 287 L 829 287 Q 839 287 839 297 L 839 320 Q 839 330 829 330 L 657 330 Q 647 330 647 320 L 647 297 Q 647 287 657 287 Z" opacity="0.2"/></g><g transform="translate(-14,-6) scale(1,1)"><path fill="#ffff91" stroke="none" d="M 650 280 L 822 280 Q 832 280 832 290 L 832 313 Q 832 323 822 323 L 650 323 Q 640 323 640 313 L 640 290 Q 640 280 650 280 Z"/></g><g transform="translate(-14,-6) scale(1,1)"><path fill="none" stroke="#000000" d="M 650 280 L 822 280 Q 832 280 832 290 L 832 313 Q 832 323 822 323 L 650 323 Q 640 323 640 313 L 640 290 Q 640 280 650 280 Z" stroke-miterlimit="10"/></g><g transform="translate(-14,-6) scale(1,1)"><g><path fill="none" stroke="none"/><text fill="#000000" stroke="none" font-family="Helvetica" font-size="16px" font-style="normal" font-weight="bold" text-decoration="none" x="658.171875" y="302.5">FacturacionPendiente</text></g></g><g transform="translate(-14,-6) scale(1,1)"><path fill="none" stroke="#000000" d="M 739 148 L 737 279" stroke-miterlimit="10"/></g><g transform="translate(-14,-6) scale(1,1)"><path fill="none" stroke="#000000" d="M 732.9461100116126 268.77424936926127 L 737 279 L 741.364164512745 268.9027692853091" stroke-miterlimit="10"/></g><g transform="translate(-14,-6) scale(1,1)"><g><path fill="none" stroke="none"/><text fill="#000000" stroke="none" font-family="Helvetica" font-size="16px" font-style="normal" font-weight="normal" text-decoration="none" x="742.5" y="219.5">informarCierrePedido()</text></g></g><g transform="translate(-14,-6) scale(1,1)"><path fill="#C0C0C0" stroke="none" d="M 705 447 L 789 447 Q 799 447 799 457 L 799 480 Q 799 490 789 490 L 705 490 Q 695 490 695 480 L 695 457 Q 695 447 705 447 Z" opacity="0.2"/></g><g transform="translate(-14,-6) scale(1,1)"><path fill="#ffff91" stroke="none" d="M 698 440 L 782 440 Q 792 440 792 450 L 792 473 Q 792 483 782 483 L 698 483 Q 688 483 688 473 L 688 450 Q 688 440 698 440 Z"/></g><g transform="translate(-14,-6) scale(1,1)"><path fill="none" stroke="#000000" d="M 698 440 L 782 440 Q 792 440 792 450 L 792 473 Q 792 483 782 483 L 698 483 Q 688 483 688 473 L 688 450 Q 688 440 698 440 Z" stroke-miterlimit="10"/></g><g transform="translate(-14,-6) scale(1,1)"><g><path fill="none" stroke="none"/><text fill="#000000" stroke="none" font-family="Helvetica" font-size="16px" font-style="normal" font-weight="bold" text-decoration="none" x="703.98046875" y="462.5">Facturado</text></g></g><g transform="translate(-14,-6) scale(1,1)"><path fill="none" stroke="#000000" d="M 737 324 L 739 439" stroke-miterlimit="10"/></g><g transform="translate(-14,-6) scale(1,1)"><path fill="none" stroke="#000000" d="M 734.6144032506469 428.9120596179367 L 739 439 L 743.0321658513453 428.7656637466202" stroke-miterlimit="10"/></g><g transform="translate(-14,-6) scale(1,1)"><g><path fill="none" stroke="none"/><text fill="#000000" stroke="none" font-family="Helvetica" font-size="16px" font-style="normal" font-weight="normal" text-decoration="none" x="746.5" y="385.5">facturarPedido()</text></g></g><g transform="translate(-14,-6) scale(1,1)"><path fill="#C0C0C0" stroke="none" d="M 337 447 L 477 447 Q 487 447 487 457 L 487 480 Q 487 490 477 490 L 337 490 Q 327 490 327 480 L 327 457 Q 327 447 337 447 Z" opacity="0.2"/></g><g transform="translate(-14,-6) scale(1,1)"><path fill="#ffff91" stroke="none" d="M 330 440 L 470 440 Q 480 440 480 450 L 480 473 Q 480 483 470 483 L 330 483 Q 320 483 320 473 L 320 450 Q 320 440 330 440 Z"/></g><g transform="translate(-14,-6) scale(1,1)"><path fill="none" stroke="#000000" d="M 330 440 L 470 440 Q 480 440 480 450 L 480 473 Q 480 483 470 483 L 330 483 Q 320 483 320 473 L 320 450 Q 320 440 330 440 Z" stroke-miterlimit="10"/></g><g transform="translate(-14,-6) scale(1,1)"><g><path fill="none" stroke="none"/><text fill="#000000" stroke="none" font-family="Helvetica" font-size="16px" font-style="normal" font-weight="bold" text-decoration="none" x="335.94921875" y="462.5">EntregaPendiente</text></g></g><g transform="translate(-14,-6) scale(1,1)"><path fill="none" stroke="#000000" d="M 687 461 L 481 461" stroke-miterlimit="10"/></g><g transform="translate(-14,-6) scale(1,1)"><path fill="none" stroke="#000000" d="M 491.16267485762415 456.790482243984 L 481 461 L 491.16267485762415 465.209517756016" stroke-miterlimit="10"/></g><g transform="translate(-14,-6) scale(1,1)"><g><path fill="none" stroke="none"/><text fill="#000000" stroke="none" font-family="Helvetica" font-size="16px" font-style="normal" font-weight="normal" text-decoration="none" x="522.5" y="453.5">entregarPedido()</text></g></g><g transform="translate(-14,-6) scale(1,1)"><path fill="#C0C0C0" stroke="none" d="M 73 591 L 157 591 Q 167 591 167 601 L 167 624 Q 167 634 157 634 L 73 634 Q 63 634 63 624 L 63 601 Q 63 591 73 591 Z" opacity="0.2"/></g><g transform="translate(-14,-6) scale(1,1)"><path fill="#ffff91" stroke="none" d="M 66 584 L 150 584 Q 160 584 160 594 L 160 617 Q 160 627 150 627 L 66 627 Q 56 627 56 617 L 56 594 Q 56 584 66 584 Z"/></g><g transform="translate(-14,-6) scale(1,1)"><path fill="none" stroke="#000000" d="M 66 584 L 150 584 Q 160 584 160 594 L 160 617 Q 160 627 150 627 L 66 627 Q 56 627 56 617 L 56 594 Q 56 584 66 584 Z" stroke-miterlimit="10"/></g><g transform="translate(-14,-6) scale(1,1)"><g><path fill="none" stroke="none"/><text fill="#000000" stroke="none" font-family="Helvetica" font-size="16px" font-style="normal" font-weight="bold" text-decoration="none" x="71.08203125" y="606.5">Entregado</text></g></g><g transform="translate(-14,-6) scale(1,1)"><path fill="none" stroke="#000000" d="M 96 300.5 C 96 293.59644 101.59644 288 108.5 288 C 115.40356 288 121 293.59644 121 300.5 C 121 307.40356 115.40356 313 108.5 313 C 101.59644 313 96 307.40356 96 300.5 Z" stroke-miterlimit="10"/></g><g transform="translate(-14,-6) scale(1,1)"><path fill="#000000" stroke="none" d="M 101 300.5 C 101 296.357864 104.357864 293 108.5 293 C 112.642136 293 116 296.357864 116 300.5 C 116 304.642136 112.642136 308 108.5 308 C 104.357864 308 101 304.642136 101 300.5 Z"/></g><g transform="translate(-14,-6) scale(1,1)"><path fill="none" stroke="#000000" d="M 108 583 L 108 314" stroke-miterlimit="10"/></g><g transform="translate(-14,-6) scale(1,1)"><path fill="none" stroke="#000000" d="M 112.20951775601598 324.16267485762415 L 108 314 L 103.79048224398402 324.16267485762415" stroke-miterlimit="10"/></g><g transform="translate(-14,-6) scale(1,1)"><path fill="none" stroke="#000000" d="M 351 301 L 122 300" stroke-miterlimit="10"/></g><g transform="translate(-14,-6) scale(1,1)"><path fill="none" stroke="#000000" d="M 132.18095996108164 295.8349004488665 L 122 300 L 132.1441959643931 304.25385569054606" stroke-miterlimit="10"/></g><g transform="translate(-14,-6) scale(1,1)"><path fill="none" stroke="#000000" d="M 353 484 L 153 583" stroke-miterlimit="10"/></g><g transform="translate(-14,-6) scale(1,1)"><path fill="none" stroke="#000000" d="M 160.24046758625659 574.7189596588129 L 153 583 L 163.97536350973616 582.2642039486707" stroke-miterlimit="10"/></g><g transform="translate(-14,-6) scale(1,1)"><g><path fill="none" stroke="none"/><text fill="#000000" stroke="none" font-family="Helvetica" font-size="16px" font-style="normal" font-weight="normal" text-decoration="none" x="151.5" y="509.5">confirmarEntrega()</text></g></g><g transform="translate(-14,-6) scale(1,1)"><path fill="none" stroke="#000000" d="M 400 439 L 400 324" stroke-miterlimit="10"/></g><g transform="translate(-14,-6) scale(1,1)"><path fill="none" stroke="#000000" d="M 404.209517756016 334.16267485762415 L 400 324 L 395.790482243984 334.16267485762415" stroke-miterlimit="10"/></g><g transform="translate(-14,-6) scale(1,1)"><g><path fill="none" stroke="none"/><text fill="#000000" stroke="none" font-family="Helvetica" font-size="16px" font-style="normal" font-weight="normal" text-decoration="none" x="408.5" y="381.5">cancelarPedido()</text></g></g><g transform="translate(-14,-6) scale(1,1)"><g><path fill="none" stroke="none"/><text fill="#000000" stroke="none" font-family="Helvetica" font-size="20px" font-style="normal" font-weight="normal" text-decoration="none" x="293" y="41">MÁQUINA DE ESTADO</text></g></g><g transform="translate(-14,-6) scale(1,1)"><g><path fill="none" stroke="none"/><text fill="#000000" stroke="none" font-family="Helvetica" font-size="28px" font-style="normal" font-weight="normal" text-decoration="none" x="29" y="65">CLASE PEDIDO</text></g></g><g transform="translate(-14,-6) scale(1,1)"><path fill="none" stroke="#000000" d="M 687 473 L 161 593" stroke-miterlimit="10"/></g><g transform="translate(-14,-6) scale(1,1)"><path fill="none" stroke="#000000" d="M 169.97181443177027 586.6355247033334 L 161 593 L 171.84439446521927 594.8436671832849" stroke-miterlimit="10"/></g><g transform="translate(-14,-6) scale(1,1)"><g><path fill="none" stroke="none"/><text fill="#000000" stroke="none" font-family="Helvetica" font-size="16px" font-style="normal" font-weight="normal" text-decoration="none" x="359.5" y="565.5">confirmarEntrega()</text></g></g></g></svg>